<svg width="114" height="36" viewBox="0 0 114 36" fill="none" xmlns="http://www.w3.org/2000/svg">
<path d="M13.8707 9.55C19.5041 9.55 22.3207 13.5333 22.3207 21.5V33.2C22.3207 34.3667 21.7041 34.95 20.4707 34.95C19.1374 34.95 18.4707 34.3833 18.4707 33.25V21.45C18.4707 18.5167 18.1374 16.3667 17.4707 15C16.8041 13.6 15.6041 12.9 13.8707 12.9C12.0374 12.9 10.5374 13.6 9.37073 15C8.20407 16.4 7.3874 18.2333 6.92073 20.5C6.62073 22.0333 6.47073 23.9167 6.47073 26.15L6.52073 33.55C6.52073 34.0167 6.35407 34.3833 6.02073 34.65C5.6874 34.8833 5.2374 35 4.67073 35C4.0374 35 3.55407 34.8667 3.22073 34.6C2.8874 34.3333 2.72073 33.9833 2.72073 33.55C2.72073 30.5833 2.65407 26.9667 2.52073 22.7C2.42073 20.2333 2.37073 18.05 2.37073 16.15C2.37073 15.3167 2.27073 14.6667 2.07073 14.2C1.90407 13.7 1.55407 13.0167 1.02073 12.15C0.887401 11.95 0.820734 11.7167 0.820734 11.45C0.820734 11.05 1.0374 10.6833 1.47073 10.35C1.9374 9.98333 2.3874 9.8 2.82073 9.8C3.25407 9.8 3.70407 10.1167 4.17073 10.75C4.5374 11.2833 4.87073 11.9333 5.17073 12.7C5.50407 13.4333 5.67073 14.1333 5.67073 14.8V15.35C6.27073 13.6833 7.2374 12.3 8.57073 11.2C9.90407 10.1 11.6707 9.55 13.8707 9.55ZM34.0563 6.7C33.1896 6.7 32.4563 6.41667 31.8563 5.85C31.2563 5.25 30.9563 4.5 30.9563 3.6C30.9563 2.7 31.2563 1.96666 31.8563 1.4C32.4563 0.799997 33.2229 0.499997 34.1563 0.499997C35.0563 0.499997 35.7896 0.783331 36.3563 1.35C36.9563 1.91667 37.2563 2.65 37.2563 3.55C37.2563 4.45 36.9396 5.2 36.3063 5.8C35.7063 6.4 34.9563 6.7 34.0563 6.7ZM33.3063 34.7C32.7063 34.7 32.2229 34.55 31.8563 34.25C31.5229 33.95 31.3563 33.55 31.3563 33.05L31.8563 11.8C31.8563 11.2333 32.0229 10.8 32.3563 10.5C32.7229 10.2 33.2063 10.05 33.8063 10.05C34.4063 10.05 34.8729 10.2 35.2063 10.5C35.5729 10.8 35.7563 11.25 35.7563 11.85L35.2563 33.05C35.2229 33.5833 35.0229 34 34.6563 34.3C34.3229 34.5667 33.8729 34.7 33.3063 34.7ZM53.1895 35.25C50.9228 35.25 48.9895 34.7 47.3895 33.6C45.7895 32.4667 44.5395 31.0333 43.6395 29.3C43.4062 28.8333 43.2895 28.5167 43.2895 28.35C43.2895 27.8833 43.4895 27.4833 43.8895 27.15C44.3228 26.7833 44.7895 26.6 45.2895 26.6C45.6228 26.6 45.8728 26.7 46.0395 26.9C46.2395 27.0667 46.5062 27.3833 46.8395 27.85C47.6728 29.1167 48.5562 30.1333 49.4895 30.9C50.4228 31.6333 51.6562 32 53.1895 32C54.6228 32 55.8062 31.65 56.7395 30.95C57.7062 30.25 58.1895 29.3667 58.1895 28.3C58.1895 27.5333 57.9228 26.8833 57.3895 26.35C56.8895 25.8167 56.2562 25.3833 55.4895 25.05C54.7562 24.7167 53.6895 24.3 52.2895 23.8C50.5228 23.1667 49.0895 22.6 47.9895 22.1C46.9228 21.5667 46.0062 20.8333 45.2395 19.9C44.4728 18.9333 44.0895 17.7167 44.0895 16.25C44.0895 14.95 44.4395 13.75 45.1395 12.65C45.8728 11.5167 46.9062 10.6167 48.2395 9.95C49.5728 9.28333 51.1062 8.95 52.8395 8.95C54.5728 8.95 56.1062 9.28333 57.4395 9.95C58.7728 10.6167 59.8062 11.5 60.5395 12.6C61.2728 13.7 61.6395 14.9167 61.6395 16.25C61.6395 16.9167 61.5062 17.4 61.2395 17.7C61.0062 18 60.5728 18.15 59.9395 18.15C59.2728 18.15 58.8228 18.0333 58.5895 17.8C58.3895 17.5333 58.2728 17.2 58.2395 16.8C58.1062 15.2333 57.5562 14.0833 56.5895 13.35C55.6228 12.5833 54.3728 12.2 52.8395 12.2C51.0395 12.2 49.7562 12.6333 48.9895 13.5C48.2562 14.3333 47.8895 15.2333 47.8895 16.2C47.8895 17.3333 48.3728 18.2167 49.3395 18.85C50.3395 19.45 51.8728 20.1167 53.9395 20.85C55.7062 21.4833 57.1228 22.0667 58.1895 22.6C59.2562 23.1333 60.1562 23.8667 60.8895 24.8C61.6562 25.7333 62.0395 26.9 62.0395 28.3C62.0395 30.4667 61.1895 32.1667 59.4895 33.4C57.7895 34.6333 55.6895 35.25 53.1895 35.25ZM77.5059 35.25C75.2392 35.25 73.3059 34.7 71.7059 33.6C70.1059 32.4667 68.8559 31.0333 67.9559 29.3C67.7226 28.8333 67.6059 28.5167 67.6059 28.35C67.6059 27.8833 67.8059 27.4833 68.2059 27.15C68.6392 26.7833 69.1059 26.6 69.6059 26.6C69.9392 26.6 70.1892 26.7 70.3559 26.9C70.5559 27.0667 70.8226 27.3833 71.1559 27.85C71.9892 29.1167 72.8726 30.1333 73.8059 30.9C74.7392 31.6333 75.9726 32 77.5059 32C78.9392 32 80.1226 31.65 81.0559 30.95C82.0226 30.25 82.5059 29.3667 82.5059 28.3C82.5059 27.5333 82.2392 26.8833 81.7059 26.35C81.2059 25.8167 80.5726 25.3833 79.8059 25.05C79.0726 24.7167 78.0059 24.3 76.6059 23.8C74.8392 23.1667 73.4059 22.6 72.3059 22.1C71.2392 21.5667 70.3226 20.8333 69.5559 19.9C68.7892 18.9333 68.4059 17.7167 68.4059 16.25C68.4059 14.95 68.7559 13.75 69.4559 12.65C70.1892 11.5167 71.2226 10.6167 72.5559 9.95C73.8892 9.28333 75.4226 8.95 77.1559 8.95C78.8892 8.95 80.4226 9.28333 81.7559 9.95C83.0892 10.6167 84.1226 11.5 84.8559 12.6C85.5892 13.7 85.9559 14.9167 85.9559 16.25C85.9559 16.9167 85.8226 17.4 85.5559 17.7C85.3226 18 84.8892 18.15 84.2559 18.15C83.5892 18.15 83.1392 18.0333 82.9059 17.8C82.7059 17.5333 82.5892 17.2 82.5559 16.8C82.4226 15.2333 81.8726 14.0833 80.9059 13.35C79.9392 12.5833 78.6892 12.2 77.1559 12.2C75.3559 12.2 74.0726 12.6333 73.3059 13.5C72.5726 14.3333 72.2059 15.2333 72.2059 16.2C72.2059 17.3333 72.6892 18.2167 73.6559 18.85C74.6559 19.45 76.1892 20.1167 78.2559 20.85C80.0226 21.4833 81.4392 22.0667 82.5059 22.6C83.5726 23.1333 84.4726 23.8667 85.2059 24.8C85.9726 25.7333 86.3559 26.9 86.3559 28.3C86.3559 30.4667 85.5059 32.1667 83.8059 33.4C82.1059 34.6333 80.0059 35.25 77.5059 35.25ZM112.522 29.5C112.522 30.1333 112.589 30.6667 112.722 31.1C112.889 31.5333 113.089 31.95 113.322 32.35C113.556 32.7167 113.672 32.9667 113.672 33.1C113.672 33.4667 113.489 33.8167 113.122 34.15C112.756 34.4833 112.406 34.65 112.072 34.65C111.406 34.65 110.806 34.2333 110.272 33.4C109.772 32.5667 109.522 31.7667 109.522 31V30.3C108.822 31.8333 107.739 33 106.272 33.8C104.839 34.6 103.189 35 101.322 35C98.489 35 96.3723 34.0333 94.9723 32.1C93.5723 30.1667 92.8723 27.35 92.8723 23.65V11.3C92.8723 10.8667 93.039 10.5167 93.3723 10.25C93.739 9.98333 94.189 9.85 94.7223 9.85C95.289 9.85 95.7556 9.98333 96.1223 10.25C96.489 10.5167 96.6723 10.8667 96.6723 11.3V23.75C96.6723 26.55 97.0723 28.6 97.8723 29.9C98.6723 31.2 99.9556 31.85 101.722 31.85C106.222 31.85 108.472 27.7667 108.472 19.6V11.25C108.472 10.7167 108.639 10.3 108.972 10C109.306 9.7 109.756 9.55 110.322 9.55C110.922 9.55 111.406 9.7 111.772 10C112.139 10.3 112.322 10.7167 112.322 11.25L112.522 29.5ZM94.4723 6.3C94.039 6.36667 93.689 6.26667 93.4223 6C93.189 5.73333 93.0723 5.35 93.0723 4.85C93.0723 4.41666 93.189 4.06666 93.4223 3.8C93.6556 3.5 93.989 3.31667 94.4223 3.25C97.0223 2.81667 99.9556 2.58333 103.222 2.55H106.122H110.072C110.572 2.55 110.972 2.7 111.272 3C111.572 3.3 111.722 3.7 111.722 4.2C111.722 5.13333 111.189 5.6 110.122 5.6C109.522 5.6 108.989 5.58333 108.522 5.55L103.072 5.5C100.772 5.5 98.8223 5.63333 97.2223 5.9C95.6556 6.13333 94.739 6.26667 94.4723 6.3Z" fill="url(#paint0_linear_64_178)"/>
<defs>
<linearGradient id="paint0_linear_64_178" x1="-36" y1="15" x2="150.887" y2="15" gradientUnits="userSpaceOnUse">
<stop stop-color="#A68F75"/>
</linearGradient>
</defs>
</svg>
