<svg width="699" height="530" viewBox="0 0 699 530" fill="none" xmlns="http://www.w3.org/2000/svg">
<path d="M690 227C690 289.239 651.603 345.715 589.256 386.677C526.918 427.635 440.74 453 345.5 453C250.26 453 164.082 427.635 101.744 386.677C39.3973 345.715 1 289.239 1 227C1 164.761 39.3973 108.285 101.744 67.3225C164.082 26.3652 250.26 1 345.5 1C440.74 1 526.918 26.3652 589.256 67.3225C651.603 108.285 690 164.761 690 227Z" fill="#E9E8DF" stroke="#A68F75" stroke-width="2"/>
<path d="M357.629 424.676L496.043 507.463L517.855 347.662L357.629 424.676Z" fill="#E9E8DF" stroke="#A68F75" stroke-width="2"/>
<ellipse cx="345.5" cy="227" rx="343.5" ry="225" fill="#E9E8DF"/>
</svg>
