<svg width="148" height="113" viewBox="0 0 148 113" fill="none" xmlns="http://www.w3.org/2000/svg">
<rect x="93" y="47" width="22" height="20" fill="#E9E8DF"/>
<path d="M2.37493 39.7764C5.4261 45.0092 10.2892 47.11 12.3316 47.992C18.6503 50.7206 24.7961 50.0878 27.6453 49.7937C29.6831 49.5836 30.5866 49.3014 34.9545 48.7783C33.0726 52.5095 32.1835 56.7315 32.4167 60.674C32.7802 66.7843 35.7724 71.3618 38.3368 74.3491C39.0446 82.9104 40.7598 91.3917 43.4451 99.5704C44.4078 102.506 45.53 105.462 47.5207 107.853C50.2566 111.14 54.5917 113.096 58.9258 112.996C60.9467 112.95 63.1028 112.393 64.3796 110.862C65.6564 109.329 65.5561 106.658 63.7938 105.689C62.0725 104.743 60.7595 105.027 59.234 104.142C56.1355 102.349 56.9184 95.7885 57.2409 93.2948C57.468 91.5438 57.8932 89.2273 58.7279 86.4821C65.0113 87.9367 70.7551 87.9202 74.125 87.9084C75.4441 87.9037 95.0713 87.5943 108.183 77.4343C115.265 75.9678 122.202 73.8295 128.848 71.0218C130.631 70.2684 132.403 69.4656 134.278 68.9744C135.061 68.7689 135.897 68.6213 136.671 68.8504C137.131 68.9862 137.542 69.2483 138 69.3924C138.767 69.6332 139.598 69.527 140.395 69.4148C142.251 69.1539 144.167 68.8504 145.732 67.8409C147.296 66.8314 148.405 64.9092 147.859 63.157C147.501 62.0082 146.531 61.1569 145.605 60.3669C145.052 59.8958 144.483 59.4153 143.798 59.1579C142.255 58.5781 140.549 59.2453 139.021 59.8592C132.281 62.5654 125.165 64.3648 117.931 65.2196C119.648 61.7765 120.657 58.7221 121.134 57.2746C121.949 54.7998 122.144 53.2626 121.899 51.469C121.885 51.3698 121.859 51.2765 121.842 51.1785C121.977 51.1431 122.108 51.0864 122.22 50.9919C123.692 49.7439 125.549 48.9127 127.479 48.6387C127.997 48.5655 128.355 48.0956 128.28 47.5891C128.205 47.0825 127.724 46.733 127.206 46.8063C125.043 47.1144 122.987 48.0059 121.29 49.3484C121.216 49.1807 121.144 49.0119 121.059 48.8489C121.258 48.784 121.441 48.6659 121.563 48.4782C122.524 46.9881 123.871 45.7271 125.436 44.8522C125.891 44.5983 126.048 44.0328 125.788 43.5888C125.528 43.1449 124.95 42.9914 124.495 43.2452C122.717 44.2406 121.2 45.6527 120.079 47.3282C118.126 44.8239 114.944 43.0185 111.878 41.7672C110.585 41.2394 109.262 40.7588 107.915 40.3739C107.039 37.3701 105.669 34.5045 103.856 31.9328C103.545 31.4901 103.115 31.006 102.566 31.0579C102.179 31.0957 101.88 31.3956 101.628 31.6837C100.808 32.62 100.108 33.6319 99.4837 34.6875C99.4378 34.5257 99.3919 34.3651 99.3472 34.1904C99.2626 33.8551 98.9715 33.0285 98.2504 32.365C97.7213 31.8773 96.8806 31.6353 96.2501 31.9895C95.6268 32.3402 95.3901 33.0829 95.2971 33.4524C93.4284 40.8863 92.2906 45.4357 92.8438 47.7345C92.2495 48.1146 91.5936 48.4358 90.9039 48.7015C81.2589 38.6808 77.6846 33.6601 76.653 31.0498C76.5818 30.8691 75.6335 28.7426 73.742 26.4215C72.586 25.0023 71.0737 23.7861 69.2764 23.3387C67.5081 22.8983 65.3193 23.439 64.55 25.0555C64.062 26.0803 64.2552 27.3343 64.8652 28.2966C65.474 29.2578 66.4476 29.9556 67.4912 30.4432C68.2087 30.7785 68.9818 31.0336 69.5966 31.5271C69.5966 31.5271 70.2332 32.0537 70.7187 32.8743C71.3396 33.9228 72.7082 38.9716 74.3571 46.3121C72.4329 44.9283 70.2333 43.3202 66.897 41.8017C66.1204 41.4475 65.0586 40.9681 63.8048 40.4651C61.209 32.8719 59.5758 24.9646 58.9661 16.9806C58.8284 15.1836 58.7547 13.312 59.4625 11.6483C60.1546 10.0213 61.5172 8.77565 62.5909 7.35981C63.666 5.94412 64.4837 4.09988 63.8592 2.44679C63.2058 0.718191 61.1052 -0.179142 59.2317 0.0298444C57.3582 0.238834 55.7059 1.3239 54.3082 2.56132C50.2654 6.14014 47.8037 11.0943 45.7975 16.0511C42.5048 24.1851 40.182 32.6923 38.8702 41.3459C35.7828 42.2987 31.9792 43.1548 27.7178 43.3177C22.7847 43.5054 17.5195 43.7062 12.9764 40.4107C11.9944 39.6988 9.28151 37.7305 8.06255 34.2167C7.77024 33.3737 7.05757 31.3192 7.41633 28.782C7.68449 26.8881 8.36333 26.0368 8.23893 23.8844C8.1737 22.7497 8.08311 21.4922 7.15906 20.8191C6.14805 20.0835 4.60554 20.3834 3.70069 20.7967C0.496205 22.2608 0.168738 27.4879 0.0481402 29.4137C-0.0472832 30.964 -0.257458 35.2583 2.37697 39.7768L2.37493 39.7764ZM113.127 50.9164C112.24 51.4371 111.216 51.7276 110.172 51.7287C109.606 51.7287 109.033 51.6414 108.48 51.4524C107.986 51.2836 107.726 50.7558 107.899 50.2729C108.071 49.79 108.611 49.5361 109.105 49.705C109.444 49.8207 109.804 49.8774 110.172 49.8774C110.85 49.8786 111.554 49.6814 112.151 49.3295C112.748 48.9777 113.232 48.4794 113.511 47.8973C113.733 47.4345 114.297 47.2361 114.771 47.4533C115.244 47.6706 115.447 48.222 115.225 48.6848C114.766 49.6388 114.012 50.3957 113.127 50.9164ZM106.301 62.0425C107.643 60.8322 109.217 59.8723 110.919 59.2253C111.285 59.086 111.697 59.2631 111.838 59.6208C111.981 59.9786 111.799 60.3812 111.433 60.5194C109.898 61.1026 108.474 61.9705 107.265 63.0627C106.976 63.3224 106.527 63.3047 106.261 63.0237C105.994 62.7415 106.012 62.3022 106.301 62.0425ZM105.196 58.5912C106.64 57.6643 108.272 57.0244 109.972 56.7198C110.357 56.6501 110.728 56.9004 110.799 57.2771C110.87 57.6537 110.614 58.0162 110.229 58.0859C108.718 58.3575 107.26 58.9289 105.976 59.7531C105.647 59.9632 105.208 59.8747 104.992 59.5535C104.775 59.2324 104.867 58.8026 105.196 58.5912Z" fill="black"/>
</svg>
