<svg width="35" height="50" viewBox="0 0 35 50" fill="none" xmlns="http://www.w3.org/2000/svg">
<path d="M34.7638 45.1338C34.7007 45.4782 34.1695 48.1936 32.2706 49.5373C31.5114 50.0744 31.0549 50.0136 30.8506 49.9776C30.1042 49.8467 29.6546 49.0517 29.6916 48.3319C29.7281 47.6116 30.1266 46.9583 30.5272 46.3466C30.9283 45.7349 31.3542 45.106 31.4582 44.3919C31.5372 43.8504 31.4818 43.3533 31.3083 42.7731C30.9605 41.6068 29.9689 39.3661 28.4781 36.4911C28.2891 37.4391 28.0736 38.4993 27.7348 40.0528C26.7536 44.5514 26.2164 46.4315 25.5538 46.4164C25.303 46.4106 24.9715 45.9613 24.3076 45.0619C23.8138 44.3931 23.4505 43.7925 23.1968 43.3346C21.8193 43.3411 20.4413 43.3476 19.0637 43.3542C18.5411 43.3566 18.0185 43.3591 17.4963 43.3615C17.0583 43.7851 16.3893 44.4588 15.6245 45.3496C14.9843 46.0944 14.743 46.4489 14.4355 46.42C13.7867 46.3592 13.4792 44.6575 13.295 43.6884C13.1009 40.4788 12.4298 38.0198 11.8445 36.354C11.6899 35.9146 11.5482 35.5514 11.4052 35.2114C9.59865 38.8898 8.39206 41.5557 8.21815 42.1013C8.02535 42.7057 8.03308 43.2766 8.03308 43.2766C8.0348 43.4227 8.04639 43.5696 8.06829 43.7197C8.17221 44.4339 8.59775 45.0627 8.99882 45.6744C9.39988 46.2865 9.79795 46.9398 9.83488 47.6597C9.87138 48.3796 9.42179 49.1749 8.6759 49.3055C8.5153 49.3341 8.13828 49.3953 7.25584 48.8652C6.73196 48.5506 5.65582 47.9038 4.97821 46.6208C4.24779 45.2379 4.38262 43.8765 4.50973 42.8306C5.16329 37.4615 6.4923 33.1878 6.4923 33.1874C6.91527 31.8272 7.49841 30.0411 8.25337 27.9554C7.68741 26.543 7.33014 25.5417 7.13605 24.6459C5.49008 22.8239 4.04726 21.4789 2.99007 20.5578C1.80404 19.525 0.485772 18.4918 0.0997012 16.8248C-0.127028 15.8438 0.0932616 15.2182 0.169697 15.0255C0.517524 14.1445 1.25997 13.6878 1.67869 13.4377C2.06345 13.208 2.44906 13.0476 4.55356 12.6375C6.9853 12.1482 9.02548 12.5963 9.34966 11.9454C9.53172 11.581 8.9516 11.3162 9.07312 10.5886C9.15943 10.0715 9.55965 9.56268 10.0895 9.35701C11.0364 8.99016 12.009 9.74305 12.3366 9.99647C12.4349 10.0724 12.9481 10.4894 13.2852 11.106C13.259 11.1672 13.2431 11.2329 13.2542 11.3031C13.3998 12.2119 13.064 13.2415 12.3563 14.058C11.735 14.7746 10.8388 15.3561 9.69309 15.7866C9.54323 15.8425 9.18124 16.0078 9.061 16.3224C9.00002 16.4816 9.01334 16.6513 9.09793 16.8007C9.17737 16.9394 9.29846 17.0178 9.37061 17.0639L10.6421 17.8833C10.8241 18.0004 11.0732 17.956 11.1969 17.7817C11.3205 17.6083 11.2729 17.3724 11.0899 17.2545L9.93908 16.513C9.95411 16.5061 9.97 16.4991 9.98631 16.493C11.2595 16.0152 12.2644 15.359 12.9729 14.5411C13.6801 13.7258 14.0636 12.7579 14.0807 11.8098C14.6961 11.5972 15.2929 11.4279 15.8434 11.2928C15.1877 8.66275 13.1416 6.48325 9.99742 5.82375C7.49653 5.29937 5.00982 6.43708 3.17368 8.11879C2.52913 8.70886 1.65874 10.1771 0.650474 9.56378C-0.142214 9.08144 0.333142 8.03428 0.644462 7.36788C2.89977 2.54483 9.1953 1.63973 13.2962 4.16648C16.1247 5.90942 17.7896 8.12318 18.4298 10.7483C18.638 10.7096 18.8489 10.6724 19.0636 10.6382C19.6446 10.5455 20.2475 10.4749 20.8628 10.4521C21.4721 7.83507 21.4082 5.82982 21.1479 4.33834C20.9921 3.44629 20.5627 1.56546 21.607 0.612621C22.565 -0.261887 24.3307 0.0400848 24.6447 0.0935402C25.3351 0.211884 26.2661 0.420406 26.6968 1.166C27.0901 1.84667 26.8853 2.83508 26.1605 3.19246C25.85 3.34548 25.4481 3.40261 25.2755 3.69112C25.1234 3.94576 25.1982 4.23957 25.2351 4.37791C27.0541 11.1597 27.9671 13.4216 27.9671 13.4216C28.1822 13.9546 28.4699 14.6814 28.7992 15.5587C29.2411 16.5071 29.5692 17.4648 29.8603 18.3153C31.0489 21.788 30.7883 24.7837 30.6234 26.4711C30.6135 26.5714 30.6036 26.6653 30.5933 26.7539C31.9069 29.601 32.7987 32.0915 33.3999 34.0029C35.0707 39.3136 35.2511 42.4717 34.7637 45.1339L34.7638 45.1338ZM17.9183 38.6491C17.5181 38.1252 16.8739 37.7795 16.195 37.724C16.1302 37.7187 16.0649 37.7163 16.0001 37.7163C15.3851 37.7163 14.7728 37.9485 14.3309 38.3569C14.1729 38.503 14.1694 38.7434 14.3232 38.894C14.476 39.0437 14.7298 39.0482 14.8883 38.9013C14.9845 38.8124 15.0957 38.7405 15.2125 38.6781C15.4899 38.53 15.8119 38.4557 16.1263 38.4806C16.4436 38.5063 16.7463 38.632 16.9924 38.823C17.0959 38.9034 17.1921 38.9919 17.2706 39.0947C17.4008 39.2641 17.6498 39.3029 17.8289 39.1792C18.0079 39.0564 18.048 38.8185 17.9183 38.6491ZM21.8165 36.1051C21.4978 35.7432 20.895 35.6685 20.4428 35.9346C20.3548 35.986 20.2732 36.0492 20.1997 36.1215C20.1246 36.0439 20.0392 35.9766 19.9455 35.9207C19.763 35.813 19.5569 35.7603 19.3551 35.7603C19.2555 35.7603 19.1584 35.7775 19.064 35.8028C18.8686 35.8546 18.6904 35.955 18.5616 36.1088C18.4241 36.2733 18.4533 36.512 18.6264 36.6422C18.7552 36.7401 18.9274 36.7491 19.064 36.6789C19.1103 36.6552 19.1529 36.6226 19.1876 36.5806C19.2465 36.51 19.4157 36.5014 19.523 36.565C19.6617 36.6475 19.763 36.8303 19.7871 37.0417C19.809 37.231 19.9747 37.3759 20.1748 37.3804C20.3724 37.3849 20.548 37.2478 20.5793 37.0596C20.6154 36.8425 20.7211 36.6634 20.8628 36.5806C20.9723 36.5169 21.141 36.5218 21.2033 36.5924C21.345 36.7532 21.5962 36.7744 21.7667 36.6401C21.9354 36.5059 21.9577 36.2663 21.8165 36.1051ZM25.8224 38.7976C25.7434 38.4666 25.4797 38.1814 25.1169 38.0341C24.9146 37.952 24.6853 37.9112 24.4204 37.9112C24.3525 37.9112 24.2821 37.9141 24.2091 37.9194C23.4885 37.9733 22.7942 38.2532 22.254 38.7086C22.0891 38.8478 22.0737 39.0877 22.2201 39.2444C22.3665 39.4023 22.619 39.4158 22.7839 39.2767C22.9316 39.1522 23.0982 39.0518 23.2713 38.9637C23.5805 38.8061 23.9197 38.7025 24.271 38.6764C24.4973 38.6592 24.6699 38.6784 24.803 38.7323C24.8962 38.7698 24.9722 38.8306 25.0134 38.8971C25.0271 38.9192 25.0375 38.942 25.0426 38.9649C25.0916 39.1693 25.3067 39.2971 25.5205 39.2518C25.7361 39.2056 25.8709 39.0024 25.8224 38.7976Z" fill="black"/>
</svg>
