<svg width="85" height="121" viewBox="0 0 85 121" fill="none" xmlns="http://www.w3.org/2000/svg">
<rect x="32" y="79" width="31" height="20" fill="#E9E8DF"/>
<rect x="28.7488" y="25" width="14.0129" height="20" transform="rotate(32.5095 28.7488 25)" fill="#1D2124"/>
<path d="M84.4264 109.224C84.2731 110.057 82.9831 116.628 78.3715 119.88C76.5277 121.18 75.4191 121.033 74.9228 120.946C73.1103 120.629 72.0184 118.705 72.1081 116.963C72.1967 115.22 73.1645 113.639 74.1375 112.159C75.1115 110.678 76.146 109.157 76.3984 107.428C76.5903 106.118 76.4558 104.915 76.0345 103.511C75.1897 100.688 72.7817 95.2659 69.161 88.3085C68.7022 90.6026 68.1787 93.1683 67.3559 96.9279C64.9729 107.814 63.6685 112.364 62.0592 112.328C61.4501 112.314 60.645 111.226 59.0328 109.05C57.8335 107.431 56.9512 105.978 56.335 104.87C52.9896 104.885 49.6431 104.901 46.2975 104.917C45.0283 104.923 43.7592 104.929 42.491 104.935C41.4273 105.96 39.8026 107.59 37.9453 109.746C36.3904 111.548 35.8043 112.406 35.0577 112.336C33.482 112.189 32.7353 108.071 32.2879 105.726C31.8166 97.9588 30.1866 92.0079 28.7652 87.9768C28.3898 86.9132 28.0457 86.0343 27.6984 85.2116C23.311 94.1133 20.3807 100.565 19.9584 101.885C19.4901 103.348 19.5089 104.729 19.5089 104.729C19.5131 105.083 19.5412 105.438 19.5944 105.802C19.8468 107.53 20.8803 109.052 21.8543 110.532C22.8283 112.013 23.795 113.594 23.8847 115.337C23.9734 117.079 22.8815 119.003 21.07 119.319C20.68 119.388 19.7644 119.537 17.6213 118.254C16.349 117.492 13.7356 115.927 12.0899 112.822C10.3161 109.476 10.6435 106.181 10.9522 103.65C12.5394 90.6569 15.767 80.3134 15.767 80.3134C16.7942 77.0219 18.2104 72.6995 20.0439 67.6522C18.6694 64.2342 17.8018 61.811 17.3304 59.6431C13.333 55.2339 9.82906 51.9789 7.2616 49.7499C4.38125 47.2504 1.17973 44.7501 0.242132 40.716C-0.308496 38.3419 0.226492 36.828 0.412121 36.3618C1.25684 34.2297 3.05993 33.1245 4.07683 32.5193C5.01122 31.9633 5.94771 31.5752 11.0586 30.5827C16.9643 29.3987 21.919 30.483 22.7063 28.9079C23.1485 28.026 21.7396 27.3851 22.0347 25.6244C22.2443 24.3731 23.2163 23.1417 24.5032 22.644C26.8027 21.7562 29.1647 23.5782 29.9603 24.1915C30.1991 24.3751 31.4453 25.3844 32.264 26.8766C32.2004 27.0247 32.1618 27.1837 32.1889 27.3535C32.5424 29.5528 31.7269 32.0444 30.0083 34.0204C28.4993 35.7545 26.3227 37.1618 23.5404 38.2037C23.1764 38.339 22.2973 38.7389 22.0053 39.5003C21.8572 39.8854 21.8895 40.2963 22.095 40.6577C22.2879 40.9935 22.582 41.1831 22.7572 41.2947L25.845 43.2777C26.2871 43.5611 26.892 43.4534 27.1924 43.0318C27.4927 42.612 27.3769 42.0412 26.9327 41.7559L24.1378 39.9615C24.1743 39.9447 24.2128 39.9279 24.2525 39.9131C27.3445 38.7567 29.7849 37.1688 31.5055 35.1896C33.2231 33.2165 34.1544 30.8741 34.1961 28.5798C35.6905 28.0653 37.14 27.6555 38.4769 27.3286C36.8845 20.9638 31.9153 15.6895 24.2794 14.0935C18.2059 12.8245 12.1667 15.5777 7.7075 19.6475C6.14217 21.0754 4.02838 24.6286 1.57972 23.1443C-0.345377 21.9771 0.809058 19.4429 1.56512 17.8303C7.0423 6.15849 22.3314 3.96815 32.2908 10.0829C39.1599 14.3008 43.2032 19.6581 44.758 26.011C45.2638 25.9172 45.7759 25.8273 46.2973 25.7443C47.7083 25.5202 49.1726 25.3493 50.6668 25.294C52.1466 18.9609 51.9912 14.1082 51.3593 10.4988C50.9807 8.34 49.9379 3.78842 52.4741 1.48254C54.8007 -0.633768 59.0888 0.0970085 59.8513 0.226372C61.5282 0.512756 63.7891 1.01739 64.8351 2.82172C65.7904 4.46894 65.2929 6.86088 63.5326 7.72575C62.7786 8.09606 61.8025 8.23432 61.3833 8.93251C61.0141 9.54874 61.1955 10.2598 61.2852 10.5945C65.7028 27.0065 67.92 32.4804 67.92 32.4804C68.4424 33.7701 69.1412 35.529 69.941 37.6521C71.0141 39.9472 71.8109 42.2649 72.5179 44.323C75.4044 52.727 74.7715 59.9766 74.3711 64.06C74.3471 64.3029 74.3231 64.53 74.2981 64.7443C77.4881 71.6344 79.654 77.6614 81.1141 82.2871C85.1718 95.139 85.6101 102.781 84.4264 109.224ZM43.5158 93.5309C42.5439 92.2629 40.9796 91.4264 39.3308 91.2921C39.1733 91.2793 39.0148 91.2734 38.8573 91.2734C37.3639 91.2734 35.8768 91.8353 34.8036 92.8238C34.4199 93.1773 34.4115 93.759 34.7849 94.1234C35.1561 94.4858 35.7724 94.4967 36.1572 94.1412C36.3908 93.9259 36.6609 93.7521 36.9446 93.601C37.6183 93.2425 38.4004 93.0628 39.1638 93.123C39.9345 93.1852 40.6697 93.4894 41.2672 93.9516C41.5186 94.1461 41.7522 94.3604 41.943 94.6093C42.259 95.0191 42.8638 95.1129 43.2987 94.8137C43.7336 94.5164 43.8307 93.9407 43.5158 93.5309ZM52.9828 87.3744C52.209 86.4985 50.7449 86.3178 49.6468 86.9617C49.433 87.0861 49.2348 87.2392 49.0565 87.414C48.874 87.2263 48.6665 87.0634 48.4392 86.9281C47.9959 86.6674 47.4954 86.54 47.0052 86.54C46.7633 86.54 46.5276 86.5814 46.2982 86.6427C45.8237 86.7681 45.3909 87.011 45.078 87.3833C44.7443 87.7813 44.8152 88.359 45.2355 88.6741C45.5484 88.9111 45.9666 88.9328 46.2982 88.7629C46.4108 88.7057 46.5141 88.6267 46.5985 88.5249C46.7414 88.3541 47.1523 88.3334 47.413 88.4874C47.7499 88.6869 47.996 89.1293 48.0544 89.6409C48.1075 90.0991 48.5101 90.4496 48.996 90.4605C49.4758 90.4714 49.9023 90.1396 49.9784 89.6843C50.066 89.159 50.3226 88.7254 50.6667 88.525C50.9326 88.3709 51.3425 88.3827 51.4937 88.5536C51.8378 88.9427 52.4479 88.994 52.8619 88.6691C53.2718 88.3442 53.3259 87.7645 52.9828 87.3744ZM62.7115 93.8901C62.5196 93.0892 61.8793 92.399 60.9981 92.0424C60.5069 91.8439 59.95 91.7452 59.3066 91.7452C59.1418 91.7452 58.9708 91.7521 58.7935 91.7649C57.0436 91.8953 55.3573 92.5727 54.0454 93.6749C53.645 94.0116 53.6074 94.5923 53.9631 94.9715C54.3187 95.3537 54.9319 95.3862 55.3323 95.0495C55.6911 94.7483 56.0957 94.5054 56.516 94.2921C57.2668 93.9109 58.0907 93.66 58.9437 93.5968C59.4933 93.5554 59.9125 93.6018 60.2358 93.7321C60.4621 93.823 60.6467 93.9701 60.7468 94.1311C60.7802 94.1844 60.8052 94.2397 60.8177 94.295C60.9366 94.7898 61.4591 95.0989 61.9785 94.9893C62.502 94.8777 62.8294 94.3859 62.7115 93.8901Z" fill="black"/>
</svg>
