<svg width="54" height="30" viewBox="0 0 54 30" fill="none" xmlns="http://www.w3.org/2000/svg">
<path d="M53.9813 5.94475C53.8385 4.89644 52.6207 4.06022 51.6917 4.54026C51.0377 4.87806 50.7468 5.67313 50.1704 6.13305C49.6953 6.51157 49.066 6.63059 48.4621 6.63238C46.928 6.6373 45.4811 5.97601 44.025 5.48652C41.4869 4.63329 38.7082 4.28648 36.137 5.03059C34.1362 5.60911 32.2944 6.93219 31.2389 8.72222C28.9079 7.97548 26.3787 8.04526 24.4148 8.9938C21.9644 10.1777 21.3779 12.2474 18.6661 12.5374C18.2285 12.584 16.633 12.7549 15.176 11.8426C13.4268 10.7478 13.4687 9.08963 12.5216 7.17326C12.9875 5.7115 13.1871 4.16257 13.0928 2.62922C13.0633 2.14914 12.9438 1.58315 12.5053 1.40238C12.0761 1.22565 11.612 1.52811 11.2444 1.81491C11.1836 1.86234 11.1228 1.90977 11.0619 1.95719C11.0522 1.86547 11.0421 1.77464 11.0333 1.67577C11.0333 1.67577 10.9927 1.21984 10.6186 0.411361C10.5608 0.286982 10.4714 0.127244 10.2991 0.0435838C10.1113 -0.0472431 9.87994 0.0131593 9.71334 0.139332C9.54675 0.26551 9.43129 0.447605 9.31978 0.62568C9.06373 1.03373 9.45684 0.0480544 7.99105 2.74467C7.95447 2.81179 7.92318 2.86996 7.88837 2.93348C7.72177 2.90261 7.55077 2.88292 7.37449 2.88069C6.38376 2.86726 5.67288 3.33929 3.92546 3.18851C3.42172 3.14511 3.18813 3.08202 2.91445 3.11871C2.75712 2.48426 2.59978 1.84984 2.44288 1.21586C2.39176 1.00915 2.18506 0.883877 1.98146 0.935775C1.77785 0.987673 1.65445 1.19752 1.70557 1.40422C1.86334 2.04135 2.02157 2.67894 2.17934 3.31601C2.18727 3.34778 2.20446 3.37328 2.219 3.40057C2.10618 3.47753 2.00085 3.56433 1.90345 3.66141C1.57159 2.96209 1.15819 2.30354 0.673892 1.70301C0.540793 1.53836 0.301481 1.5142 0.139297 1.64887C-0.0228879 1.78399 -0.0471221 2.02694 0.0859696 2.1916C0.533745 2.7464 0.916287 3.35578 1.22211 4.00236C1.27323 4.11019 1.36799 4.17774 1.47376 4.20459C1.11369 4.77013 0.90832 5.40543 0.804308 5.72935C0.256491 7.43497 -0.509527 13.8411 3.81535 20.0411C4.70252 21.3131 5.69105 22.408 6.73648 23.3579C6.51832 24.1766 6.25125 24.9816 5.92336 25.7614C5.74443 26.1864 5.52142 26.6356 5.11331 26.8415C4.81186 26.9931 4.45489 26.9864 4.14506 27.1193C3.33061 27.4688 3.21029 28.7332 3.80967 29.3932C4.40904 30.0536 5.44561 30.1399 6.27239 29.8209C7.09873 29.5014 7.75625 28.854 8.35433 28.1927C9.01276 27.4652 9.6271 26.6974 10.2018 25.9001C15.4274 28.9734 20.9818 29.3698 22.7411 29.4947C23.7578 29.5667 24.8177 29.6343 25.9019 29.6146C27.1862 29.692 28.4951 29.6338 29.7754 29.569L41.5994 28.9667C42.4253 28.9242 43.2552 28.8826 44.0789 28.9649C44.5901 29.016 45.1146 29.1135 45.6108 28.977C46.5125 28.7287 47.0736 27.6988 46.967 26.7564C46.8608 25.8137 46.1966 25.0012 45.3804 24.5395C44.3857 23.9771 43.1464 23.8836 42.0808 24.2903C41.7485 24.4174 41.4334 24.5896 41.0993 24.7131C39.7401 25.2142 38.2223 24.8536 36.8763 24.3163C36.6828 24.2388 36.4916 24.1552 36.3007 24.0706C37.3602 22.5266 38.2152 20.523 38.1702 18.0962C38.1605 17.5709 38.0076 13.4747 34.7485 10.6623C34.6692 10.5939 34.585 10.5326 34.5039 10.4668C34.9988 9.67486 35.6964 9.00379 36.5043 8.54517C37.9128 7.74562 39.6016 7.53981 41.198 7.77739C42.2504 7.93355 43.2667 8.27224 44.2993 8.53041C45.9916 8.95366 47.7355 9.16261 49.4781 9.15009C50.5204 9.14293 51.6002 9.04584 52.5116 8.5322C53.423 8.01856 54.1247 6.99347 53.9814 5.9452L53.9813 5.94475ZM4.48314 11.1385C4.32933 11.1747 4.17596 11.0776 4.14026 10.9219C3.97323 10.1939 3.80664 9.46553 3.63961 8.73762C3.60391 8.58147 3.69954 8.42577 3.85291 8.38953C4.00672 8.35328 4.16009 8.45038 4.19579 8.60608C4.36239 9.33403 4.52941 10.062 4.69645 10.7899C4.73215 10.946 4.63651 11.1022 4.48314 11.1385ZM6.6039 10.2602C6.49416 10.3751 6.31346 10.3783 6.2002 10.2669C5.60302 9.68075 5.04906 9.04897 4.5444 8.37925C4.44876 8.25218 4.47256 8.07009 4.59772 7.97254C4.72289 7.87545 4.90226 7.89961 4.99834 8.02668C5.48577 8.67365 6.0208 9.28353 6.59773 9.84947C6.71055 9.96178 6.71363 10.1452 6.6039 10.2602ZM6.89565 7.45622C6.84893 7.46024 6.80177 7.46248 6.75506 7.46248C6.2209 7.46024 5.70836 7.20969 5.37827 6.77658C5.14337 6.46472 5.02437 6.08352 5.02393 5.70098C5.02393 5.50277 5.0561 5.30322 5.12441 5.11262C5.19581 4.91218 5.41353 4.80883 5.61097 4.88131C5.80841 4.95379 5.91021 5.17482 5.83882 5.37526C5.80268 5.47728 5.78373 5.58824 5.78373 5.70099C5.78329 5.91933 5.85468 6.14126 5.98073 6.30681C6.15438 6.54037 6.46331 6.69293 6.75463 6.6907L6.83044 6.68757C7.03934 6.66922 7.22356 6.82671 7.24162 7.03924C7.25969 7.25132 7.10499 7.43788 6.89565 7.45622Z" fill="black"/>
</svg>
