<svg width="77" height="114" viewBox="0 0 77 114" fill="none" xmlns="http://www.w3.org/2000/svg">
<rect x="32" y="13" width="30" height="19" fill="#E9E8DF"/>
<rect x="41.6554" y="31.969" width="14.0129" height="41.4915" transform="rotate(45.6216 41.6554 31.969)" fill="#1D2124"/>
<rect x="43.6349" y="39.531" width="29.1425" height="21.1446" transform="rotate(4.1051 43.6349 39.531)" fill="#1D2124"/>
<rect x="26.6488" y="32.1164" width="35.5962" height="23.033" transform="rotate(4.1051 26.6488 32.1164)" fill="#1D2124"/>
<rect x="23.7325" y="59.2846" width="15.5022" height="22.6718" transform="rotate(14.4409 23.7325 59.2846)" fill="#1D2124"/>
<path d="M64.3095 58.2335C60.5181 57.1253 56.7468 55.5686 53.5745 53.0603C50.4003 50.5445 47.8788 47.0115 47.1773 42.9372C47.0731 42.3278 47.0101 41.6979 47.0101 41.0615C47.0101 40.0018 47.1839 38.9178 47.6403 37.8991C48.0141 37.0701 48.5794 36.3211 49.2959 35.7396C50.0116 35.1599 50.8868 34.7449 51.8597 34.6407C52.0203 34.6231 52.1809 34.6147 52.3396 34.6147C53.244 34.6156 54.1042 34.8817 54.8546 35.3125C55.6059 35.7452 56.2529 36.3425 56.7432 37.0468C57.7386 38.4824 58.0767 40.1916 58.0786 41.8087L58.0758 42.0534C58.072 42.2171 58.0673 42.3706 58.0673 42.5121C58.0664 42.7251 58.0795 42.9075 58.1087 43.0368C58.1378 43.168 58.1735 43.2369 58.2138 43.288C58.35 43.4648 58.6064 43.5662 58.8327 43.6258C59.7756 43.8882 61.3222 44.1794 62.6558 44.4027C63.9931 44.6269 65.1313 44.7897 65.3181 44.8158C65.8215 44.8874 66.1708 45.3489 66.0985 45.8476C66.0272 46.3463 65.5604 46.6925 65.0571 46.6208C64.8608 46.5929 63.7094 46.4291 62.3476 46.2003C60.9821 45.9704 59.4184 45.6811 58.3348 45.3806H58.3339C58.0475 45.2968 57.3272 45.1052 56.774 44.4241L56.7731 44.4232C56.5158 44.1031 56.3777 43.7439 56.3082 43.4174C56.2378 43.0889 56.2274 42.7847 56.2265 42.5111C56.2265 42.3306 56.2321 42.1641 56.235 42.0143L56.2368 41.8068C56.2387 40.4372 55.9391 39.0965 55.2273 38.0796C54.8939 37.5995 54.4375 37.179 53.9304 36.8887C53.4232 36.5965 52.872 36.4365 52.3386 36.4374C52.2437 36.4374 52.1498 36.4421 52.0559 36.4523C51.4905 36.5128 50.9421 36.7594 50.4594 37.1502C49.9786 37.5391 49.5757 38.0685 49.3193 38.6398C48.9906 39.372 48.8479 40.1964 48.8479 41.0607C48.8479 41.578 48.8995 42.1084 48.9887 42.6313C49.586 46.1474 51.8239 49.3434 54.7212 51.635C57.6203 53.9322 61.1655 55.4153 64.828 56.4843C66.5081 56.9756 68.3488 57.331 70.0608 57.3301C71.123 57.3301 72.1316 57.1942 73.0275 56.889C73.9253 56.582 74.7095 56.1131 75.3716 55.4199C76.4826 54.2587 77 52.5962 77 50.8495C77 50.1229 76.9098 49.3878 76.7417 48.6854C76.5868 48.0387 76.4262 47.42 76.1726 46.7296V46.7306C75.7115 45.4847 75.026 44.0324 73.3562 41.8067C72.0414 40.0585 71.1286 39.1709 70.3445 38.3447C69.5622 37.5259 68.8823 36.7071 68.3132 35.359C67.7187 33.9661 67.5112 32.7306 67.4239 31.9638C67.4098 31.8382 67.422 31.7163 67.4558 31.6028C67.1102 29.4898 66.7383 27.2345 66.3401 24.8219C66.4425 24.8544 66.5514 24.8758 66.6651 24.8693C68.3987 24.7809 70.1249 24.5492 71.8198 24.1789C72.3156 24.0701 72.6293 23.5835 72.5194 23.0922C72.4096 22.6009 71.9184 22.2902 71.4226 22.399C69.827 22.7479 68.2022 22.9657 66.57 23.0494C66.3813 23.0587 66.2198 23.1378 66.0789 23.242C65.984 22.6661 65.8873 22.0827 65.7887 21.4891C65.9061 21.5058 66.0291 21.5002 66.1512 21.4677C67.8059 21.035 69.4588 20.6024 71.1136 20.1697C71.6047 20.0413 71.8987 19.5426 71.7691 19.056C71.6395 18.5694 71.1361 18.2782 70.645 18.4066C68.9902 18.8392 67.3364 19.2719 65.6826 19.7045C65.6168 19.7213 65.5661 19.7603 65.5079 19.7892C65.2863 18.4484 65.0581 17.0696 64.8214 15.6404C64.4767 13.5553 62.2285 -0.0464286 59.6835 0.0131185C59.0937 0.0270749 58.3114 1.13055 56.7478 3.33942C55.5852 4.98161 54.7296 6.45731 54.1314 7.58132C49.6556 7.55899 45.1788 7.53666 40.703 7.51526C39.6709 6.47504 38.096 4.81992 36.2928 2.63335C34.7856 0.804132 34.2165 -0.0667569 33.4915 0.00398509C31.9636 0.153784 31.2395 4.33235 30.8047 6.71232C30.8047 6.71232 30.5952 7.85953 27.8812 20.1652C27.7535 20.0405 27.5995 19.941 27.4098 19.9075C25.7288 19.6144 24.0805 19.1399 22.5039 18.4951C22.0343 18.3025 21.4962 18.5249 21.3018 18.9901C21.1074 19.4553 21.3319 19.9884 21.8014 20.181C23.5022 20.877 25.279 21.3878 27.0915 21.7041C27.254 21.733 27.4089 21.7032 27.5545 21.652C27.4681 22.0446 27.3789 22.4447 27.2878 22.8578C27.1892 22.8281 27.0878 22.8048 26.9788 22.8095C26.7065 22.8206 26.4332 22.8271 26.1608 22.8271C24.8761 22.8271 23.5913 22.6987 22.333 22.4438C21.8352 22.3433 21.3488 22.6615 21.2473 23.1547C21.1459 23.6478 21.4671 24.1297 21.9648 24.2302C23.3453 24.5093 24.7522 24.6498 26.1608 24.6498C26.4031 24.6498 26.6463 24.6424 26.8886 24.634C26.389 26.8242 25.8199 28.9512 25.2132 30.9805C25.3297 31.2038 25.3606 31.469 25.263 31.7221C23.2082 37.0311 21.438 39.9079 20.1383 41.5819C19.9185 41.8647 19.4847 42.4146 18.9682 43.2353C18.4535 44.0531 17.8666 45.1296 17.3707 46.4284C17.1172 47.0918 16.9322 47.7347 16.7612 48.4502C16.5931 49.1527 16.503 49.8877 16.503 50.6135C16.503 52.3599 17.0214 54.0234 18.1314 55.1845C18.7935 55.8777 19.5776 56.3466 20.4745 56.6537C21.3704 56.9598 22.379 57.0956 23.4402 57.0947C25.1523 57.0956 26.9938 56.7402 28.6731 56.2489C32.3356 55.1808 35.88 53.6968 38.7799 51.3997C41.6771 49.109 43.9149 45.913 44.5133 42.3959C44.6034 41.8721 44.6542 41.3427 44.6542 40.8244C44.6542 39.9601 44.5114 39.1348 44.1827 38.4035C43.9273 37.8322 43.5235 37.3018 43.0426 36.9139C42.5609 36.524 42.0124 36.2765 41.4471 36.217C41.3532 36.2067 41.2593 36.2021 41.1644 36.2021C40.631 36.2021 40.0797 36.3621 39.5726 36.6543C39.0655 36.9446 38.6091 37.366 38.2747 37.8461C37.5629 38.8621 37.2643 40.2029 37.2661 41.5726L37.268 41.7801V41.781C37.2708 41.9299 37.2765 42.0955 37.2765 42.2741C37.2755 42.5477 37.2652 42.8528 37.1948 43.1813C37.1253 43.5079 36.9872 43.8679 36.729 44.1889C36.1758 44.87 35.4555 45.0617 35.1681 45.1463H35.1672C34.0835 45.4459 32.5207 45.7353 31.1544 45.9651C29.7927 46.194 28.6414 46.3577 28.445 46.3857C27.9416 46.4573 27.4758 46.1103 27.4035 45.6125C27.3312 45.1138 27.6815 44.6523 28.1839 44.5806C28.3717 44.5546 29.509 44.3918 30.8463 44.1675C32.1798 43.9442 33.7264 43.653 34.6693 43.3906C34.8966 43.3311 35.152 43.2287 35.2882 43.0529C35.3286 43.0017 35.3652 42.9319 35.3934 42.7998C35.4225 42.6705 35.4347 42.4872 35.4347 42.2732C35.4347 42.1327 35.43 41.9801 35.4263 41.8173V41.8182C35.4244 41.7363 35.4234 41.6544 35.4234 41.5726C35.4253 39.9555 35.7615 38.2472 36.7579 36.8107C37.2482 36.1073 37.8961 35.5091 38.6474 35.0774C39.3978 34.6466 40.259 34.3805 41.1624 34.3795C41.3221 34.3795 41.4817 34.3879 41.6432 34.4056C42.6152 34.5098 43.4914 34.9248 44.2061 35.5044C44.9226 36.0859 45.4889 36.8349 45.8627 37.6639C46.32 38.6827 46.4928 39.7667 46.4928 40.8264C46.4928 41.4628 46.4299 42.0927 46.3257 42.7021C45.6232 46.7763 43.1017 50.3094 39.9275 52.8242C36.7562 55.3335 32.9846 56.89 29.1925 57.9983C27.396 58.5221 25.4031 58.9176 23.4394 58.9185C22.2223 58.9185 21.0127 58.765 19.8745 58.3779C18.7382 57.9918 17.6723 57.3629 16.7915 56.4362C16.7868 56.4315 16.783 56.4259 16.7792 56.4213C12.7485 59.3503 9.52089 62.0661 7.12228 64.22C5.14448 65.9943 3.66536 67.4477 2.62003 68.8116C1.57385 70.1784 0.9531 71.4364 0.625342 72.9268C0.472266 73.6292 0.417797 74.2405 0.417797 74.7597C0.419675 75.8865 0.666674 76.5685 0.765268 76.8299C1.62737 79.1234 3.90388 80.2827 4.38639 80.5097C5.81573 81.2177 7.9438 81.6318 10.4203 82.0877H10.4212C13.4293 82.6469 15.236 82.9613 16.5463 83.2163C17.8535 83.4703 18.6875 83.6722 19.6642 83.9922C20.2315 84.1774 21.0992 84.4826 22.1388 84.9487C22.4853 85.1041 22.6995 85.4539 22.6779 85.8298C22.676 85.867 22.6722 85.9359 22.6722 86.0345C22.6713 86.3192 22.7032 86.8458 22.8751 87.4041C23.0479 87.9652 23.3494 88.5457 23.8856 89.0193C24.5552 89.6101 25.3929 89.8651 26.2794 89.8669C27.1988 89.8697 28.1445 89.571 28.8093 89.1347C29.5775 88.6322 30.0301 87.9484 30.3147 87.1752C30.5964 86.4067 30.6828 85.5609 30.6818 84.8705C30.6818 84.1709 30.5973 83.6377 30.572 83.4889C30.4499 82.7827 30.232 82.217 29.9127 81.6271C29.5944 81.04 29.1652 80.4334 28.6505 79.7104C26.9996 77.389 25.1597 76.2009 24.8104 75.9804C23.366 75.0667 22.0062 74.6089 21.0652 74.367C20.5731 74.2405 20.2773 73.7436 20.405 73.2561C20.5327 72.7685 21.0342 72.4755 21.5263 72.602C22.5988 72.8774 24.1502 73.3985 25.8011 74.4433C26.2491 74.7271 28.3087 76.0623 30.1558 78.66C30.6685 79.382 31.14 80.0398 31.5335 80.7618C31.926 81.481 32.2322 82.2681 32.3871 83.1837C32.4228 83.3912 32.5233 84.0285 32.5233 84.8696C32.5233 84.8975 32.5205 84.9301 32.5205 84.9589C34.0203 85.5032 35.472 85.9256 36.8114 86.268C35.2665 92.727 30.4469 98.0798 23.0402 99.6988C17.1491 100.987 11.2919 98.1924 6.96635 94.0623C5.44873 92.6136 3.39763 89.0091 1.02354 90.5145C-0.84436 91.6989 0.275058 94.2697 1.00945 95.9063C6.32117 107.751 21.1516 109.974 30.8112 103.768C37.4734 99.4875 41.395 94.0511 42.9034 87.6043C44.7224 87.9569 46.6485 88.2565 48.6339 88.3319C50.0698 94.7582 49.9186 99.683 49.3054 103.345C48.9382 105.537 47.9258 110.155 50.3853 112.496C52.643 114.643 56.8015 113.902 57.5415 113.77C59.1681 113.479 61.361 112.968 62.375 111.136C63.302 109.465 62.8202 107.037 61.1119 106.159C60.3813 105.784 59.4347 105.643 59.028 104.934C58.6693 104.309 58.8458 103.587 58.9332 103.247C63.2183 86.5927 65.3698 81.0381 65.3698 81.0372C65.8638 79.9123 66.3483 78.7278 66.8123 77.4829C67.0809 76.7609 67.3307 76.0501 67.5654 75.3476C68.5262 73.1276 69.2343 70.9271 69.8287 69.0199C70.8064 65.8863 71.2872 63.2903 71.1491 59.1024C70.7876 59.1322 70.4251 59.1508 70.0607 59.1508C68.0989 59.1527 66.1061 58.7573 64.3095 58.2335ZM51.8473 17.639C52.1845 17.2622 52.7658 17.2278 53.1461 17.5618C54.1097 18.4103 55.3765 18.9435 56.6612 19.0412C56.7843 19.0505 56.9045 19.056 57.0209 19.056C57.3731 19.056 57.6802 19.0067 57.9244 18.9025C58.0756 18.8393 58.2202 18.7397 58.3207 18.6318C58.4221 18.5229 58.4784 18.415 58.5 18.3182C58.6108 17.827 59.1029 17.5181 59.5988 17.6279C60.0946 17.7377 60.4064 18.2252 60.2956 18.7165C60.1914 19.1761 59.9556 19.5669 59.6655 19.8748C59.3734 20.1837 59.024 20.4182 58.6465 20.5782C58.0962 20.8099 57.5365 20.8778 57.02 20.8778C56.8481 20.8778 56.68 20.8704 56.5166 20.8574C54.8224 20.7252 53.196 20.0404 51.9235 18.9249C51.5459 18.5918 51.5102 18.0158 51.8473 17.639ZM41.6833 19.0765C40.733 20.3652 39.2443 21.1979 37.6396 21.3384C37.4865 21.3514 37.3325 21.3579 37.1794 21.3579C35.7313 21.3551 34.3132 20.796 33.2662 19.7902C32.9018 19.4394 32.8943 18.8616 33.2483 18.5006C33.6024 18.1396 34.1856 18.1321 34.55 18.4829C35.2318 19.1444 36.2188 19.5362 37.1796 19.5343C37.281 19.5343 37.3825 19.5297 37.4829 19.5213C38.5357 19.4357 39.5781 18.8532 40.1951 18.0047C40.4937 17.5972 41.0694 17.5069 41.4807 17.8028C41.8902 18.0996 41.982 18.669 41.6833 19.0765ZM46.4625 25.7692C46.0371 26.0306 45.5601 26.1534 45.0811 26.1544C44.4256 26.1553 43.7137 25.9106 43.231 25.3104C42.9155 24.916 42.9831 24.3419 43.3813 24.0302C43.7795 23.7176 44.3589 23.7846 44.6735 24.1791C44.7271 24.2516 44.8689 24.3298 45.0811 24.3307C45.2285 24.3316 45.3854 24.287 45.4896 24.2209C45.6474 24.1242 45.7892 23.9706 45.9028 23.7613C46.0165 23.5538 46.0944 23.2942 46.1217 23.0365C46.1714 22.5825 46.5527 22.2345 47.0138 22.2233C47.4749 22.2121 47.8731 22.5406 47.9454 22.9918C47.9867 23.2551 48.076 23.5156 48.1962 23.7231C48.3164 23.9325 48.4629 24.086 48.6234 24.1846C48.7333 24.2535 48.8967 24.3 49.0479 24.2981C49.2574 24.2972 49.3973 24.2228 49.4536 24.1511C49.7795 23.765 50.3599 23.7138 50.7496 24.0367C51.1393 24.3595 51.191 24.9345 50.8651 25.3207C50.3796 25.891 49.6875 26.1218 49.0479 26.1208C48.5643 26.1199 48.0844 25.9952 47.6561 25.7347C47.4345 25.5989 47.2439 25.4351 47.0739 25.2574C46.8992 25.45 46.6973 25.625 46.4625 25.7692Z" fill="black"/>
</svg>
