<svg width="119" height="113" viewBox="0 0 119 113" fill="none" xmlns="http://www.w3.org/2000/svg">
<rect x="15" y="29" width="22" height="27" fill="#E9E8DF"/>
<path d="M117.081 102.528C115.545 101.21 113.57 100.532 111.857 99.4544C110.471 98.5826 109.265 97.455 108.097 96.3073C102.517 90.8227 98.3974 85.5772 98.3974 85.5772C97.3077 84.1426 96.0334 82.3632 94.6174 80.2854C94.2542 79.7517 93.8803 79.1966 93.4976 78.6232C94.362 78.2822 95.2963 77.8666 96.2743 77.3387C99.5434 75.5719 103.156 72.6871 105.449 67.9912C106.944 64.9301 107.483 61.9187 107.484 59.1356C107.497 52.1282 103.989 46.573 103.76 46.2407L103.755 46.232L103.718 46.1797C103.683 46.1312 103.626 46.0547 103.549 45.953C103.392 45.7506 103.147 45.4503 102.803 45.0774C102.116 44.3315 101.039 43.2969 99.5033 42.1753C96.4305 39.9338 91.5237 37.3446 84.187 36.0435H84.186C84.0413 36.0173 83.849 35.9883 83.6373 35.9883C83.3547 35.9883 83.0701 36.0416 82.838 36.183C82.5748 36.3389 82.3019 36.6644 82.1038 37.1352C81.9056 37.6021 81.7891 38.1959 81.7901 38.7916C81.7871 39.5908 81.9989 40.3822 82.3631 40.9081C82.7108 41.4177 83.1945 41.7305 83.8063 41.9718C84.4143 42.211 85.1175 42.3457 85.7847 42.5026C88.6276 43.1816 91.3723 44.6094 93.6845 46.3929C95.9951 48.18 97.8763 50.3179 98.9533 52.512C99.8255 54.2992 100.265 56.3527 100.266 58.4692C100.265 61.5466 99.335 64.7693 97.3654 67.4914C95.4831 70.0912 92.8318 71.957 89.8472 72.9605C89.4966 72.3997 89.1401 71.8253 88.7798 71.2402C86.2798 67.1805 83.5625 62.5436 80.7216 57.3844C77.7283 50.8506 72.911 46.267 67.4247 42.2131C70.5997 33.3768 72.5624 27.1367 73.7191 22.5161C74.6786 18.6861 75.1555 15.7034 77.7865 13.2092C79.3482 11.7301 80.9789 11.0772 81.7335 8.89392C81.8345 8.60235 82.6591 6.09746 81.4334 3.80366C81.0022 2.99773 80.4428 2.44851 80.0805 2.09398C79.5415 1.56605 78.5839 0.627408 77.2155 0.217673C75.2692 -0.364506 72.9683 0.263199 71.6222 1.59899C70.1722 3.03649 70.0799 5.04167 69.9779 6.06756C69.6905 8.9513 67.5606 12.4056 63.2261 19.3064C59.7976 24.7629 56.0808 29.2402 52.6427 32.8163C48.4393 30.661 44.3553 29.0549 40.5763 27.851C41.0629 26.1258 41.9884 24.5149 43.2548 23.2497C43.6375 22.8671 43.6365 22.2481 43.2529 21.8675C42.8692 21.4858 42.2486 21.4868 41.8669 21.8694C40.3683 23.3699 39.2816 25.2511 38.7018 27.2823C38.1521 27.1215 37.616 26.9742 37.0828 26.8299C37.3858 24.9788 37.7821 23.1432 38.2764 21.3337C38.4192 20.8126 38.1104 20.275 37.5879 20.1335C37.0653 19.9921 36.5263 20.2992 36.3845 20.8203C35.8882 22.6375 35.4852 24.48 35.1744 26.3378C29.3742 24.9178 24.7074 24.4334 22.1074 24.1952C16.2722 23.6605 11.3821 23.8019 7.99249 24.0353C7.96336 24.663 8.00998 25.374 8.20228 26.1296C9.06959 29.5257 12.2416 31.1871 13.0302 31.5735C12.3805 33.6609 11.7696 35.9324 11.2461 38.3782C10.338 42.6219 9.87474 46.5382 9.67175 49.9993C4.19784 50.7587 0.282849 52.793 0.014822 55.2338C-0.0279131 55.6213 0.0157932 56.0737 0.224607 56.5948C2.29816 56.6016 5.24104 56.7111 8.74802 57.1847C11.9034 57.611 13.4818 57.824 15.1222 58.4576C16.1197 58.8421 17.0142 59.3177 17.8445 59.8311C16.6422 61.1495 15.4398 62.4689 14.2383 63.7881C13.8741 64.1882 13.9042 64.8062 14.3044 65.1694C14.7055 65.5327 15.3252 65.5027 15.6894 65.1036C16.95 63.7194 18.2117 62.3361 19.4723 60.9529C19.8792 61.2726 20.26 61.598 20.6164 61.9274L17.6328 66.763C17.3492 67.2231 17.493 67.8246 17.9543 68.1084C18.4156 68.3913 19.0188 68.2479 19.3033 67.7878C20.2114 66.3154 21.1195 64.8441 22.0286 63.3716C22.824 64.2724 23.4456 65.1229 23.8739 65.7806C15.263 89.3783 10.5226 100.279 7.99048 104.128C7.4466 104.955 5.43801 107.838 6.4511 109.981C7.2242 111.617 9.39492 112.12 10.1107 112.206C12.8196 112.534 16.0692 112.028 17.3482 109.624C18.3262 107.787 17.7726 105.538 18.0766 103.481C18.4943 100.645 20.0744 98.9013 21.3837 97.1538C23.7865 93.9474 26.976 89.2331 31.0444 82.986C31.3047 83.3948 31.5708 83.8046 31.8592 84.2182L31.8476 84.2395C30.0722 88.0435 29.9721 92.6998 32.0272 96.3605C33.0975 98.2668 34.7155 99.8981 35.344 101.991C35.9726 104.084 34.9711 106.931 32.7868 107.102C31.8059 107.178 30.8706 106.694 29.8925 106.588C28.0374 106.387 26.0329 108.083 26.434 109.9C26.8623 111.836 29.2796 112.452 31.2552 112.663C34.4457 113.003 37.71 113.265 40.8306 112.522C43.9512 111.777 46.9512 109.858 48.212 106.915C49.1667 104.687 48.2237 103.977 49.5484 99.16C49.7845 98.3008 50.0205 97.5859 50.2827 96.9718C50.4624 97.0183 50.6352 97.0706 50.8178 97.1151C53.8392 97.8542 62.251 99.7819 70.9718 95.6495C72.3043 95.018 74.8276 93.7945 77.1722 91.5492C90.1069 96.72 99.456 100.569 101.777 101.575C102.329 101.814 103.549 102.304 104.583 103.491C105.351 104.371 105.745 105.507 106.351 106.503C108.408 109.892 113.224 111.299 116.755 109.485C117.48 109.112 118.164 108.605 118.579 107.904C119.607 106.162 118.616 103.848 117.081 102.529L117.081 102.528ZM17.3366 54.2566C17.2133 53.7306 17.5415 53.2046 18.0679 53.0825C18.7177 52.9324 19.3179 52.5139 19.755 51.9327C20.192 51.3544 20.4475 50.6289 20.4455 49.947C20.4455 49.6942 20.4115 49.4462 20.3426 49.2079C20.192 48.6897 20.4921 48.1472 21.0117 47.997C21.5313 47.8469 22.0752 48.1462 22.2258 48.6645C22.3491 49.0887 22.4054 49.5208 22.4054 49.947C22.4035 51.0987 21.9985 52.2059 21.3215 53.1067C20.6446 54.0056 19.6773 54.7137 18.5117 54.9859C17.9863 55.1089 17.46 54.7816 17.3366 54.2566ZM23.5806 36.8728C23.5378 36.3342 23.9409 35.8634 24.4809 35.8208C24.9237 35.7859 25.3511 35.567 25.7318 35.1834C26.1096 34.8037 26.4107 34.2651 26.5525 33.7285C26.6729 33.2771 26.7234 32.7976 26.7234 32.291C26.7244 31.518 26.6049 30.683 26.4738 29.8228C26.3932 29.2891 26.7613 28.7912 27.2965 28.7098C27.8316 28.6294 28.3318 28.9965 28.4124 29.5303C28.5425 30.3963 28.6834 31.3233 28.6834 32.29C28.6834 32.9236 28.6212 33.5764 28.4464 34.2322C28.2143 35.0924 27.7675 35.9051 27.1294 36.5551C26.4942 37.2012 25.6376 37.6913 24.6353 37.7707C24.0963 37.8134 23.6233 37.4114 23.5806 36.8728ZM34.7467 46.6669C34.2727 47.315 33.7687 47.6966 33.52 48.0434C33.2219 48.4338 33.0529 48.9549 33.0548 49.4703C33.0548 49.7609 33.1073 50.0476 33.2092 50.3053C33.4074 50.808 33.1597 51.3756 32.6556 51.5732C32.1515 51.7709 31.5824 51.5238 31.3843 51.0211C31.1871 50.5203 31.0939 49.9933 31.0939 49.4703C31.0949 48.9094 31.2133 48.3544 31.4251 47.8313C29.8692 46.9546 28.3142 46.078 26.7582 45.2015C26.629 45.4388 26.4999 45.6752 26.3707 45.9125C26.1123 46.3871 25.517 46.5624 25.0411 46.3048C24.5652 46.0471 24.3894 45.4533 24.6477 44.9786C25.1567 44.0449 25.6666 43.1101 26.1745 42.1753C26.4328 41.7006 27.0282 41.5253 27.5041 41.783C27.98 42.0406 28.1558 42.6344 27.8974 43.1091C27.8295 43.234 27.7615 43.359 27.6935 43.4839C29.3077 44.3935 30.9218 45.3031 32.5361 46.2127C32.7916 45.9502 33.0149 45.7351 33.1461 45.5375C33.2733 45.3661 33.3481 45.1278 33.3413 45.0232L33.3257 44.9408C33.0305 44.4885 33.1596 43.8821 33.6132 43.5886C34.0668 43.2941 34.6747 43.4229 34.969 43.8753C35.2079 44.2395 35.3021 44.6531 35.3012 45.0241C35.2953 45.6673 35.0623 46.2136 34.7467 46.6669Z" fill="black"/>
</svg>
