<svg width="77" height="113" viewBox="0 0 77 113" fill="none" xmlns="http://www.w3.org/2000/svg">
<rect x="42" y="87" width="22" height="20" fill="#E9E8DF"/>
<rect x="10.8397" y="80" width="19.1361" height="21.8646" transform="rotate(10.1143 10.8397 80)" fill="#1D2124"/>
<rect x="5.71387" y="69" width="14.0129" height="15.454" transform="rotate(10.1143 5.71387 69)" fill="#1D2124"/>
<path d="M76.9024 102.99C76.6661 102.384 76.2239 101.998 76.0079 101.844C73.1952 99.8482 73.2274 99.2624 71.1033 98.1797C71.2363 97.5276 71.3175 96.8544 71.3193 96.1553C71.3212 95.53 71.3313 91.6141 68.7338 89.1174C67.4082 87.8437 66.9392 88.4146 64.973 86.9067C63.4074 85.7068 62.7298 84.6001 62.0117 83.5867C62.3486 83.6337 62.6966 83.4871 62.8877 83.1808C63.9447 81.4894 65.1484 79.8894 66.4814 78.4052C66.8091 78.0409 66.7787 77.4802 66.414 77.1528C66.0494 76.8254 65.4881 76.8558 65.1604 77.2201C63.7591 78.7806 62.4926 80.4627 61.3812 82.242C61.3065 82.3619 61.2723 82.4928 61.2594 82.6247C60.9317 82.2549 60.5486 81.8989 60.0621 81.5586C60.3907 81.5641 60.7101 81.3935 60.8689 81.0818C61.5751 79.6947 62.2831 78.3067 62.9893 76.9186C63.2118 76.4824 63.0373 75.9484 62.6007 75.7261C62.1641 75.5039 61.6296 75.6782 61.4071 76.1144C60.7009 77.5015 59.9929 78.8895 59.2867 80.2776C59.151 80.545 59.1778 80.8411 59.3079 81.0873C58.6581 80.7202 57.5743 80.1484 56.1231 80.0571C52.4185 79.822 50.8751 83.0148 48.5304 82.5426C46.1266 82.0575 45.0558 78.1471 44.7604 77.1574C43.0988 71.5849 46.5882 68.9776 46.3879 62.5956C46.3528 61.4889 46.1248 57.7685 44.1484 54.202L44.1751 54.1956L44.0847 54.0895C43.4607 52.9837 42.6714 51.8945 41.6596 50.9076C41.2072 50.4649 40.73 50.0812 40.2435 49.7225C40.0229 49.4716 39.8013 49.2198 39.5798 48.969C39.4469 46.1691 39.1736 43.4952 40.1808 39.4031C40.4263 38.4043 42.7424 30.5871 46.6426 29.2333C47.4522 28.953 48.3172 28.8303 49.0916 28.4669C49.3205 28.3599 51.6561 26.8327 51.5507 24.4164C51.4473 22.0544 49.0824 20.7568 48.761 20.5861C47.4372 19.8861 46.0166 19.8511 44.6346 20.1093C44.9097 18.9713 44.5229 17.7087 44.0171 16.8915C42.7284 14.8136 40.0717 14.5711 39.1948 14.4908C35.0805 14.1145 31.6151 16.9163 29.2462 19.011C23.3955 24.1849 18.6885 28.349 14.3083 36.51C11.347 42.0298 9.58386 47.4243 8.54075 52.2301C8.16689 50.6798 7.82719 49.0085 7.56133 47.2092C6.7656 41.8223 5.35693 32.2822 9.66234 22.3643C11.9554 17.0816 13.628 13.2294 17.627 9.98652C20.0556 8.01654 23.1048 6.46531 23.1573 3.79714C23.1859 2.40821 22.3985 0.886495 21.1661 0.260357C20.7683 0.0583799 19.2968 -0.57244 15.8563 1.36524C12.8969 3.0327 10.5327 5.44434 8.11308 9.1013C6.54194 11.4753 3.05634 17.2328 1.25442 25.9003C0.721779 28.4625 0.518689 30.4009 0.369146 31.8682C-1.29616 48.2229 3.15321 60.035 4.18616 62.6463C4.77511 64.1358 5.36222 65.4398 5.89762 66.5512C5.08159 70.1352 4.95235 73.6434 5.10466 76.6435C5.13327 76.6426 5.16189 76.638 5.19051 76.638C6.42473 76.6454 7.49277 77.2015 8.3808 77.8268C9.26976 78.4576 10.0018 79.1954 10.5021 79.6944C12.8413 82.036 14.0247 84.8914 14.6358 87.2496C15.246 89.6116 15.2848 91.4912 15.2857 91.9485V92.0204C15.27 93.366 15.1038 94.4636 14.9478 95.3341C14.789 96.201 14.6552 96.854 14.6607 97.221C14.6607 97.3751 14.6792 97.4701 14.6995 97.5273L14.7928 97.6702C14.8601 97.7357 14.9469 97.791 15.0909 97.8371C15.234 97.8832 15.4325 97.9137 15.6789 97.9128C16.3916 97.9183 17.4633 97.6462 18.6154 97.198C19.7712 96.7526 21.0212 96.1429 22.1843 95.5232C22.6172 95.2926 23.1545 95.4558 23.3853 95.8884C23.6161 96.3209 23.4527 96.8577 23.0197 97.0882C21.8169 97.7292 20.5143 98.3665 19.2552 98.8526C17.9914 99.3358 16.7849 99.6807 15.679 99.6863C15.294 99.6863 14.9165 99.642 14.5518 99.5267C14.1891 99.4124 13.8374 99.2187 13.5493 98.9365C13.3103 98.705 13.1275 98.4145 13.0231 98.1138C12.9179 97.8122 12.8838 97.5106 12.8838 97.2201C12.8893 96.5275 13.0527 95.8542 13.1985 95.0205C13.3472 94.1905 13.4939 93.2119 13.5087 91.9982V91.9484C13.5096 91.597 13.4736 89.8493 12.9151 87.6931C12.3576 85.5332 11.2794 82.9794 9.24489 80.9477C8.75008 80.4516 8.08452 79.7912 7.3525 79.2729C6.62046 78.749 5.8432 78.405 5.18964 78.4115C5.0161 78.4115 4.84809 78.4327 4.67823 78.4788C4.32652 78.5748 4.00618 78.7657 3.70434 79.0543C3.40433 79.3411 3.13015 79.7248 2.904 80.1657C2.44797 81.0455 2.19228 82.1541 2.1655 83.0477L2.16273 83.2359C2.16919 84.2817 2.44244 84.9504 2.868 85.7305C3.2908 86.5024 3.89728 87.35 4.36716 88.538C4.81578 89.6751 5.00226 90.8123 5.00226 91.9145C5.00042 93.9278 4.39485 95.8155 3.68035 97.5707C2.96307 99.3249 2.12858 100.962 1.59963 102.432C1.24516 103.411 1.03006 104.308 1.03193 105.091C1.0347 105.783 1.18332 106.384 1.55627 106.986C1.7492 107.296 2.27447 108.058 3.08681 108.842C3.90007 109.628 4.99673 110.434 6.33429 110.888C6.8014 111.046 7.19279 111.194 8.13345 111.361C9.06948 111.525 10.529 111.692 12.9678 111.826C15.4555 111.965 17.947 112.041 20.4359 112.041C21.0572 112.041 21.6794 112.037 22.3006 112.026C23.2487 112.012 24.3139 112.002 25.4919 112.002C28.3388 112.002 31.841 112.061 35.9277 112.251C36.1899 112.263 36.4133 112.393 36.5674 112.581C37.2837 112.652 37.9779 112.711 38.6444 112.765C40.9596 112.956 45.0841 113.272 50.1493 112.545C53.5686 112.053 56.5309 111.615 59.4064 110.439C64.0857 110.867 68.9366 111.183 73.279 109.429C73.8181 109.211 74.3784 108.934 74.6729 108.433C75.2831 107.396 74.4541 106.117 73.6104 105.258C73.4673 105.111 73.3159 104.973 73.1691 104.83C73.6547 104.776 74.1919 104.753 74.8104 104.795C75.2129 104.822 76.0788 104.82 76.653 104.338C77.0268 104.025 77.0795 103.445 76.9022 102.989L76.9024 102.99ZM44.0282 96.138C43.7725 96.4018 43.3506 96.4082 43.0866 96.1528C42.8226 95.8973 42.8161 95.4758 43.0718 95.212C44.3236 93.9218 45.5754 92.6305 46.8271 91.3405C47.0828 91.0767 47.5047 91.0702 47.7687 91.3257C48.0327 91.5812 48.0392 92.0027 47.7835 92.2664C46.5327 93.5576 45.2799 94.8479 44.0282 96.1389V96.138ZM50.382 93.7908C49.506 95.3974 48.63 97.0049 47.7539 98.6125C47.5786 98.9353 47.1742 99.0542 46.8511 98.879C46.528 98.7038 46.409 98.2998 46.5844 97.977C47.4604 96.3695 48.3355 94.7611 49.2125 93.1544C49.3888 92.8316 49.7931 92.7127 50.1153 92.8888C50.4393 93.0641 50.5584 93.468 50.382 93.7908ZM61.3155 91.5682C61.2038 91.5949 60.8678 91.6834 60.482 91.8974C60.0961 92.1123 59.6789 92.4397 59.3687 92.9497C59.0835 93.4182 58.9385 93.9587 58.9376 94.5194C58.9376 95.0829 59.0853 95.6649 59.3844 96.1979C59.6244 96.6249 59.4721 97.1663 59.0438 97.4052C58.6164 97.645 58.0745 97.4928 57.8354 97.0649C57.3895 96.2699 57.1615 95.3919 57.1615 94.5185C57.1615 93.6516 57.3877 92.7865 57.852 92.0255C58.3579 91.1955 59.0364 90.6698 59.6189 90.3461C60.2013 90.0224 60.7045 89.8895 60.8965 89.8425C61.3728 89.7272 61.8528 90.0187 61.9691 90.4955C62.0845 90.9732 61.7919 91.4529 61.3155 91.5682Z" fill="black"/>
</svg>
