<svg width="63" height="48" viewBox="0 0 63 48" fill="none" xmlns="http://www.w3.org/2000/svg">
<path d="M1.01095 16.8962C2.30976 19.119 4.37986 20.0113 5.24927 20.386C7.93898 21.545 10.5551 21.2762 11.7679 21.1513C12.6354 21.0621 13.02 20.9422 14.8793 20.72C14.0782 22.3049 13.6997 24.0983 13.799 25.773C13.9538 28.3685 15.2274 30.313 16.319 31.5819C16.6203 35.2186 17.3505 38.8213 18.4935 42.2954C18.9033 43.5422 19.381 44.7981 20.2284 45.8137C21.393 47.21 23.2384 48.0406 25.0833 47.9985C25.9435 47.9789 26.8613 47.7422 27.4048 47.0917C27.9483 46.4407 27.9056 45.3062 27.1555 44.8944C26.4228 44.4927 25.8638 44.6131 25.2145 44.2374C23.8955 43.4756 24.2288 40.6889 24.3661 39.6297C24.4627 38.8859 24.6437 37.9018 24.999 36.7358C27.6737 37.3537 30.1187 37.3466 31.5532 37.3416C32.1147 37.3396 40.4695 37.2082 46.0509 32.8925C49.0654 32.2695 52.0184 31.3612 54.8474 30.1685C55.6063 29.8485 56.3606 29.5075 57.159 29.2989C57.4922 29.2116 57.848 29.1489 58.1776 29.2462C58.3735 29.3039 58.5484 29.4152 58.7432 29.4764C59.0697 29.5787 59.4235 29.5336 59.7628 29.4859C60.5526 29.3751 61.3686 29.2462 62.0345 28.8174C62.7004 28.3886 63.1724 27.572 62.94 26.8278C62.7878 26.3397 62.3749 25.9781 61.9805 25.6426C61.745 25.4425 61.5028 25.2384 61.2113 25.129C60.5547 24.8828 59.8281 25.1661 59.1778 25.4269C56.3086 26.5765 53.2796 27.3408 50.2002 27.7039C50.9314 26.2413 51.3607 24.9439 51.5638 24.329C51.9109 23.2778 51.9936 22.6248 51.8893 21.8629C51.8836 21.8208 51.8723 21.7812 51.8651 21.7395C51.9227 21.7245 51.9782 21.7004 52.0261 21.6603C52.6528 21.1302 53.4432 20.7771 54.2648 20.6607C54.4854 20.6296 54.6376 20.43 54.6057 20.2148C54.5738 19.9997 54.3692 19.8512 54.1486 19.8823C53.2277 20.0132 52.3525 20.3919 51.6301 20.9621C51.5988 20.8909 51.5679 20.8192 51.5319 20.75C51.6168 20.7224 51.6944 20.6723 51.7463 20.5925C52.1556 19.9595 52.7289 19.4239 53.3952 19.0523C53.5886 18.9444 53.6554 18.7042 53.5449 18.5156C53.4343 18.327 53.188 18.2618 52.9947 18.3697C52.2378 18.7925 51.5921 19.3923 51.1149 20.104C50.2835 19.0402 48.9287 18.2734 47.6237 17.7418C47.0735 17.5176 46.51 17.3135 45.9367 17.15C45.564 15.874 44.9809 14.6568 44.2091 13.5644C44.0765 13.3763 43.8934 13.1707 43.66 13.1928C43.4949 13.2088 43.3679 13.3362 43.2604 13.4586C42.9113 13.8563 42.6136 14.2861 42.3478 14.7345C42.3282 14.6658 42.3087 14.5976 42.2897 14.5234C42.2537 14.3809 42.1298 14.0298 41.8228 13.748C41.5976 13.5408 41.2397 13.438 40.9713 13.5885C40.706 13.7374 40.6052 14.0529 40.5656 14.2099C39.7702 17.3676 39.2859 19.3001 39.5213 20.2766C39.2684 20.4381 38.9892 20.5745 38.6956 20.6873C34.5899 16.4308 33.0684 14.2981 32.6293 13.1893C32.599 13.1125 32.1954 12.2093 31.3902 11.2233C30.8981 10.6204 30.2543 10.1038 29.4893 9.91377C28.7365 9.7267 27.8048 9.95641 27.4773 10.643C27.2696 11.0784 27.3519 11.611 27.6115 12.0198C27.8707 12.4281 28.2851 12.7245 28.7294 12.9316C29.0348 13.0741 29.3639 13.1824 29.6256 13.392C29.6256 13.392 29.8965 13.6157 30.1032 13.9643C30.3675 14.4097 30.9501 16.5543 31.652 19.6724C30.8329 19.0846 29.8966 18.4015 28.4764 17.7565C28.1458 17.606 27.6939 17.4024 27.1601 17.1887C26.0552 13.9633 25.36 10.6045 25.1004 7.213C25.0418 6.44965 25.0104 5.65466 25.3117 4.94797C25.6064 4.25684 26.1864 3.72771 26.6434 3.12629C27.1011 2.52493 27.4492 1.74154 27.1833 1.03934C26.9052 0.305072 26.011 -0.0760957 25.2135 0.0126773C24.416 0.101452 23.7127 0.562366 23.1177 1.08799C21.3968 2.6082 20.3489 4.71261 19.4949 6.81817C18.0933 10.2733 17.1045 13.887 16.5461 17.5629C15.2319 17.9676 13.6128 18.3312 11.7988 18.4004C9.69889 18.4802 7.45765 18.5655 5.52375 17.1656C5.10572 16.8632 3.95091 16.0271 3.43203 14.5345C3.3076 14.1764 3.00424 13.3037 3.15695 12.226C3.2711 11.4215 3.56007 11.0599 3.50711 10.1456C3.47935 9.6636 3.44078 9.12944 3.04744 8.84352C2.61707 8.53105 1.96047 8.65845 1.5753 8.83399C0.211222 9.45591 0.0718275 11.6763 0.0204921 12.4943C-0.0201273 13.1528 -0.109594 14.977 1.01182 16.8964L1.01095 16.8962ZM48.1552 21.6282C47.7778 21.8494 47.3418 21.9728 46.8976 21.9733C46.6564 21.9733 46.4127 21.9362 46.1772 21.8559C45.9669 21.7842 45.8564 21.56 45.9299 21.3549C46.0034 21.1497 46.2332 21.0419 46.4435 21.1136C46.5875 21.1628 46.7407 21.1868 46.8976 21.1868C47.186 21.1874 47.4858 21.1036 47.7398 20.9541C47.9943 20.8047 48.2 20.593 48.3187 20.3458C48.4133 20.1492 48.6535 20.0649 48.855 20.1572C49.0566 20.2494 49.143 20.4837 49.0484 20.6803C48.853 21.0855 48.5321 21.407 48.1552 21.6282ZM45.2497 26.3543C45.8209 25.8402 46.4909 25.4325 47.2154 25.1576C47.3712 25.0985 47.5465 25.1737 47.6067 25.3257C47.6674 25.4776 47.5903 25.6487 47.4345 25.7073C46.7809 25.9551 46.1747 26.3237 45.6601 26.7877C45.5372 26.898 45.3459 26.8905 45.2328 26.7711C45.1192 26.6513 45.1268 26.4647 45.2497 26.3543ZM44.7792 24.8883C45.3942 24.4946 46.0888 24.2227 46.8122 24.0934C46.9762 24.0638 47.1341 24.1701 47.1644 24.3301C47.1948 24.4901 47.0858 24.6441 46.9217 24.6737C46.2785 24.789 45.6579 25.0318 45.1113 25.3818C44.9714 25.4711 44.7843 25.4335 44.6928 25.2971C44.6002 25.1607 44.6393 24.9781 44.7792 24.8883Z" fill="black"/>
</svg>
