<svg width="82" height="88" viewBox="0 0 82 88" fill="none" xmlns="http://www.w3.org/2000/svg">
<rect x="27.614" y="18.0539" width="41.1034" height="13.928" transform="rotate(64.9857 27.614 18.0539)" fill="#1D2124"/>
<rect x="26.8999" y="23" width="41.1034" height="13.928" transform="rotate(51.4977 26.8999 23)" fill="#1D2124"/>
<rect x="31.4863" y="15" width="41.1034" height="13.928" transform="rotate(48.8428 31.4863 15)" fill="#1D2124"/>
<rect x="56" y="27" width="22" height="20" fill="#E9E8DF"/>
<path d="M81.6448 22.2963C81.2597 22.0173 80.7201 22.1027 80.4411 22.4885C79.6218 23.6189 78.8024 24.7492 77.9839 25.8796C77.7974 25.7934 77.6031 25.7073 77.3981 25.6226C77.9049 24.2993 78.411 22.9761 78.9178 21.6528C79.088 21.2086 78.8659 20.7096 78.421 20.5395C77.9768 20.3693 77.4778 20.5914 77.3077 21.0363C76.7994 22.3624 76.2926 23.6886 75.7844 25.014C74.9209 24.7114 73.9322 24.3897 72.7884 24.0181C70.8615 23.3924 69.1688 22.8572 66.8689 22.8173C65.8652 22.7995 64.9384 22.8849 64.087 23.0223C64.0165 22.8992 63.9461 22.776 63.8699 22.6408C62.8733 20.8776 61.7466 19.1856 60.8446 17.3726C60.6182 16.9177 60.3897 16.4472 60.0096 16.1112C59.6302 15.7745 59.0536 15.6044 58.6045 15.8421C58.2272 16.0422 58.0471 16.4159 57.8948 16.8351C57.4456 18.068 57.2207 18.6844 57.1709 19.5507C57.1552 19.8276 57.1175 20.0938 57.0712 20.3558C55.6369 18.8396 53.977 17.5668 52.7134 18.0138C51.3254 18.5042 50.9944 20.8611 50.6548 23.5041C49.8554 29.7055 51.2214 33.9266 50.5124 38.604C51.5723 39.7892 52.633 40.9722 53.6901 42.1574C54.0069 42.5126 53.9755 43.0572 53.6204 43.3746C53.2652 43.6914 52.7206 43.6601 52.4031 43.3049C47.0076 37.2551 41.4595 31.2081 36.5244 24.6886C35.1413 22.8584 33.7241 21.0775 32.1566 19.7897C30.582 18.4999 28.9093 17.7049 26.8769 17.7012C26.0939 17.7012 25.2504 17.8215 24.3272 18.0942C23.3342 18.3867 22.3996 18.9277 21.7447 19.621C21.0877 20.3193 20.7054 21.1337 20.7033 22.0853C20.7033 22.4597 20.7638 22.8612 20.9033 23.2954C21.0222 23.6684 21.2763 24.0585 21.6664 24.4571C22.0543 24.855 22.5711 25.2522 23.1612 25.6366C24.3421 26.4082 25.8042 27.1236 27.1119 27.8503C27.9846 28.3386 28.7911 28.8269 29.4304 29.4006C36.5331 35.817 41.0574 45.2323 45.6229 53.1576C45.86 53.5704 45.7183 54.0972 45.3054 54.3342C44.8926 54.5713 44.3658 54.4296 44.1288 54.0168C39.5339 46.0095 35.0353 36.762 28.2765 30.6807C27.5967 30.0593 26.3217 29.3674 24.9587 28.6456C23.592 27.9146 22.1312 27.1394 20.9818 26.1692C20.2194 25.5207 19.5716 24.7697 19.2634 23.8237C19.0798 23.2535 18.9922 22.6933 18.9858 22.1516C12.4562 24.3726 7.08344 29.3724 3.87169 34.2313C2.73561 35.9503 -2.12195 44.3841 1.06994 53.1866C2.1092 56.0545 3.69803 58.1074 4.84478 59.3632L4.90671 59.3247C6.11894 63.5701 7.63593 68.5492 11.7936 73.6474C16.5928 79.5335 22.1492 82.1908 24.5324 83.2991C26.5433 84.2337 44.5355 92.2346 61.335 82.2698C72.6345 75.5673 76.8201 64.6378 77.9348 61.5943C79.3421 57.7526 79.9123 54.362 80.1649 51.986C80.6525 48.2048 80.2717 47.678 80.508 42.2062C80.9422 32.1411 82.3964 30.0881 80.508 27.7079C80.2197 27.3448 79.883 27.0302 79.4872 26.7412C80.2695 25.6614 81.0518 24.5814 81.8349 23.5017C82.1153 23.1152 82.0299 22.5764 81.6441 22.2966L81.6448 22.2963ZM64.2521 31.6056C64.3525 31.14 64.8116 30.8446 65.2764 30.945C65.3924 30.9699 65.5135 30.9827 65.6366 30.9827C66.147 30.9863 66.6844 30.7535 67.0111 30.3876C67.3044 30.0673 67.4802 29.5968 67.4788 29.1398C67.4788 28.9547 67.4511 28.7739 67.3977 28.6059C67.2525 28.1525 67.5016 27.667 67.955 27.5218C68.4085 27.3766 68.8939 27.6257 69.0391 28.0792C69.1502 28.4265 69.2028 28.7846 69.2028 29.1398C69.2007 30.0132 68.8911 30.8774 68.2889 31.545C67.6027 32.2967 66.6317 32.7032 65.6373 32.7067C65.396 32.7067 65.1533 32.6818 64.9126 32.6298C64.4471 32.5295 64.1517 32.0704 64.2521 31.6056ZM65.4622 40.376C65.2309 40.6479 64.823 40.6806 64.5511 40.45C64.2791 40.2187 64.2464 39.8108 64.477 39.5389C65.4722 38.3693 66.7598 37.4589 68.1936 36.9115C68.5267 36.7841 68.9004 36.9514 69.0278 37.2845C69.1552 37.6177 68.9879 37.9914 68.6548 38.1188C67.4269 38.5872 66.3143 39.3737 65.4622 40.376ZM70.0676 39.9154C68.9728 40.7198 68.1129 41.8565 67.6382 43.1301C67.5136 43.4647 67.1406 43.6348 66.8068 43.5095C66.4722 43.3849 66.3021 43.0119 66.4274 42.6781C66.9933 41.1647 68.0019 39.8315 69.3024 38.8741C69.5899 38.6627 69.9943 38.7246 70.2064 39.0122C70.4164 39.299 70.3552 39.704 70.0676 39.9154Z" fill="black"/>
<path d="M33.2526 18.4549C35.0208 19.912 36.4991 21.7955 37.9001 23.6442C38.5721 24.5326 39.259 25.411 39.9538 26.2851C41.1575 25.4423 42.4623 24.8892 43.4489 23.1573C44.5202 21.276 44.4177 19.3982 44.244 16.8313C44.1778 15.8554 43.2076 12.4515 41.8467 7.51566C40.9932 4.41853 39.2129 1.24304 36.1719 0.207442C35.7655 0.0686358 35.3377 -0.0281783 34.9098 0.00741068C33.6649 0.110626 32.7537 1.33424 32.5637 2.56861C32.5074 2.93378 32.5032 3.29965 32.5274 3.66553C32.4775 3.58225 32.4313 3.50395 32.3807 3.41923C31.9978 2.77431 31.3087 1.65106 30.014 1.22175C29.1028 0.919949 27.6756 0.871532 27.0457 1.7122C26.4897 2.45463 26.5937 3.50102 26.8884 4.38146C27.8728 7.31915 29.0217 7.5996 29.8153 10.0263C29.8765 10.2128 30.8788 13.4267 29.6188 16.4057C30.9684 16.8371 32.1756 17.5645 33.2526 18.4549Z" fill="black"/>
</svg>
