<svg width="34" height="50" viewBox="0 0 34 50" fill="none" xmlns="http://www.w3.org/2000/svg">
<path d="M33.9569 45.5709C33.8525 45.3028 33.6573 45.1319 33.5619 45.0637C32.32 44.1806 32.3342 43.9214 31.3963 43.4423C31.455 43.1538 31.4908 42.8559 31.4917 42.5466C31.4925 42.2699 31.497 40.5372 30.35 39.4325C29.7646 38.8689 29.5576 39.1215 28.6894 38.4543C27.9981 37.9234 27.6989 37.4337 27.3818 36.9852C27.5306 37.0061 27.6842 36.9412 27.7686 36.8057C28.2353 36.0573 28.7668 35.3493 29.3554 34.6926C29.5001 34.5314 29.4867 34.2833 29.3257 34.1384C29.1647 33.9935 28.9168 34.007 28.7721 34.1682C28.1534 34.8587 27.5942 35.603 27.1034 36.3903C27.0704 36.4433 27.0553 36.5013 27.0496 36.5596C26.9049 36.396 26.7357 36.2385 26.5209 36.0879C26.666 36.0903 26.8071 36.0148 26.8772 35.8769C27.189 35.2631 27.5016 34.649 27.8135 34.0348C27.9117 33.8418 27.8347 33.6055 27.6419 33.5071C27.4491 33.4088 27.2131 33.4859 27.1148 33.6789C26.803 34.2927 26.4904 34.9069 26.1785 35.521C26.1186 35.6394 26.1304 35.7704 26.1879 35.8793C25.901 35.7169 25.4224 35.4639 24.7816 35.4235C23.1458 35.3195 22.4644 36.7322 21.429 36.5233C20.3676 36.3086 19.8948 34.5784 19.7643 34.1404C19.0306 31.6747 20.5714 30.5211 20.483 27.6972C20.4675 27.2075 20.3668 25.5613 19.4941 23.9832L19.5059 23.9803L19.466 23.9334C19.1904 23.4441 18.8419 22.9622 18.3951 22.5255C18.1954 22.3296 17.9847 22.1598 17.7699 22.0011C17.6724 21.8901 17.5746 21.7787 17.4768 21.6677C17.4181 20.4288 17.2974 19.2457 17.7422 17.435C17.8506 16.9931 18.8733 13.5341 20.5954 12.9351C20.9529 12.811 21.3349 12.7568 21.6768 12.596C21.7779 12.5486 22.8092 11.8729 22.7627 10.8037C22.717 9.7586 21.6727 9.18444 21.5308 9.10891C20.9463 8.79918 20.319 8.78366 19.7088 8.89793C19.8303 8.39436 19.6595 7.83569 19.4361 7.47412C18.8671 6.55471 17.694 6.44739 17.3068 6.41188C15.4901 6.24537 13.9599 7.48509 12.9139 8.41194C10.3305 10.7013 8.25206 12.5438 6.31796 16.1549C5.01037 18.5973 4.23183 20.9842 3.77124 23.1107C3.60616 22.4247 3.45616 21.6852 3.33877 20.889C2.98741 18.5054 2.3654 14.2842 4.26649 9.89572C5.27899 7.55822 6.01756 5.8537 7.78334 4.41881C8.85572 3.54714 10.2021 2.86076 10.2253 1.68015C10.2379 1.06558 9.89024 0.392255 9.34608 0.115202C9.1704 0.0258318 8.52066 -0.253292 7.00148 0.604087C5.69472 1.3419 4.65082 2.409 3.5824 4.02713C2.88865 5.07756 1.34955 7.62515 0.553898 11.4603C0.318708 12.594 0.229031 13.4517 0.163 14.101C-0.572332 21.3376 1.39233 26.5642 1.84843 27.7196C2.10849 28.3787 2.36773 28.9557 2.60415 29.4474C2.24382 31.0333 2.18675 32.5856 2.25401 33.9131C2.26664 33.9127 2.27928 33.9106 2.29191 33.9106C2.83689 33.9139 3.30849 34.1599 3.70061 34.4366C4.09314 34.7158 4.41638 35.0422 4.63731 35.263C5.67019 36.2991 6.19272 37.5626 6.46257 38.606C6.732 39.6511 6.74912 40.4828 6.74953 40.6852V40.717C6.7426 41.3124 6.66922 41.798 6.60034 42.1832C6.53023 42.5668 6.47112 42.8557 6.47358 43.0182C6.47358 43.0863 6.48173 43.1283 6.4907 43.1537L6.53186 43.2169C6.56162 43.2459 6.59993 43.2704 6.66352 43.2908C6.7267 43.3112 6.81434 43.3246 6.92317 43.3242C7.23784 43.3267 7.71108 43.2063 8.2198 43.008C8.73013 42.8109 9.28207 42.5411 9.79567 42.2669C9.98684 42.1649 10.2241 42.2371 10.326 42.4285C10.4279 42.6199 10.3557 42.8574 10.1645 42.9594C9.63344 43.243 9.05825 43.525 8.50228 43.7401C7.94426 43.9539 7.41153 44.1065 6.92318 44.109C6.75321 44.109 6.58649 44.0894 6.42549 44.0384C6.2653 43.9878 6.11 43.9021 5.98282 43.7772C5.87725 43.6748 5.79654 43.5462 5.75048 43.4132C5.70401 43.2797 5.68893 43.1463 5.68893 43.0177C5.69138 42.7113 5.76353 42.4134 5.82792 42.0445C5.89355 41.6772 5.95836 41.2442 5.96488 40.7072V40.6851C5.96529 40.5296 5.94939 39.7563 5.70279 38.8023C5.45659 37.8465 4.9805 36.7165 4.08216 35.8176C3.86367 35.598 3.56979 35.3059 3.24656 35.0765C2.92332 34.8447 2.58012 34.6925 2.29153 34.6954C2.2149 34.6954 2.14072 34.7047 2.06571 34.7252C1.91041 34.7676 1.76896 34.8521 1.63568 34.9798C1.50321 35.1067 1.38215 35.2765 1.28228 35.4715C1.08092 35.8608 0.968018 36.3514 0.956195 36.7468L0.954973 36.83C0.957826 37.2928 1.07848 37.5887 1.26639 37.9339C1.45308 38.2754 1.72088 38.6505 1.92835 39.1761C2.12645 39.6793 2.20879 40.1824 2.20879 40.6701C2.20798 41.561 1.94058 42.3963 1.62509 43.1729C1.30837 43.9491 0.939895 44.6734 0.706332 45.3239C0.549809 45.7573 0.454832 46.1539 0.455656 46.5004C0.456879 46.8065 0.522503 47.0726 0.687184 47.339C0.772375 47.4762 1.00431 47.8132 1.36301 48.1601C1.72211 48.5078 2.20635 48.8645 2.79696 49.0657C3.00322 49.1354 3.17604 49.2007 3.59139 49.2746C4.00471 49.3472 4.64917 49.4211 5.72605 49.4807C6.82452 49.5419 7.92467 49.5758 9.02366 49.5758C9.29799 49.5758 9.57271 49.5737 9.84703 49.5692C10.2656 49.5627 10.736 49.5582 11.2562 49.5582C12.5132 49.5582 14.0597 49.5843 15.8642 49.6688C15.9799 49.6741 16.0786 49.7312 16.1466 49.8145C16.4629 49.8459 16.7695 49.872 17.0638 49.8961C18.0861 49.9806 19.9073 50.1201 22.1439 49.7986C23.6537 49.5811 24.9617 49.3872 26.2314 48.8669C28.2976 49.0563 30.4396 49.1962 32.357 48.4201C32.595 48.3233 32.8424 48.2009 32.9724 47.9793C33.2419 47.5202 32.8758 46.9546 32.5033 46.5743C32.4401 46.5094 32.3733 46.4482 32.3084 46.385C32.5228 46.3609 32.7601 46.3511 33.0332 46.3695C33.2109 46.3813 33.5932 46.3805 33.8468 46.1675C34.0118 46.0287 34.0351 45.772 33.9568 45.5704L33.9569 45.5709ZM19.441 42.5389C19.3281 42.6557 19.1418 42.6585 19.0252 42.5455C18.9087 42.4324 18.9058 42.2459 19.0187 42.1292C19.5714 41.5583 20.1242 40.987 20.6769 40.4161C20.7898 40.2994 20.9761 40.2966 21.0927 40.4096C21.2093 40.5226 21.2121 40.7091 21.0992 40.8259C20.5469 41.3972 19.9937 41.9681 19.441 42.5394V42.5389ZM22.2466 41.5004C21.8598 42.2113 21.473 42.9225 21.0862 43.6338C21.0087 43.7767 20.8302 43.8293 20.6875 43.7518C20.5449 43.6742 20.4923 43.4955 20.5697 43.3527C20.9565 42.6414 21.343 41.9297 21.7302 41.2188C21.808 41.0759 21.9866 41.0233 22.1288 41.1012C22.2719 41.1788 22.3245 41.3575 22.2466 41.5004ZM27.0744 40.5169C27.0251 40.5287 26.8767 40.5679 26.7063 40.6626C26.5359 40.7576 26.3517 40.9025 26.2148 41.1282C26.0888 41.3355 26.0248 41.5746 26.0244 41.8227C26.0244 42.0721 26.0896 42.3296 26.2217 42.5655C26.3277 42.7544 26.2604 42.9939 26.0713 43.0996C25.8825 43.2057 25.6433 43.1384 25.5377 42.9491C25.3408 42.5973 25.2402 42.2088 25.2402 41.8223C25.2402 41.4388 25.34 41.056 25.545 40.7193C25.7684 40.352 26.068 40.1194 26.3252 39.9761C26.5824 39.8329 26.8046 39.7741 26.8893 39.7533C27.0997 39.7023 27.3116 39.8313 27.363 40.0422C27.4139 40.2536 27.2847 40.4659 27.0744 40.5169Z" fill="black"/>
</svg>
