<svg width="145" height="80" viewBox="0 0 145 80" fill="none" xmlns="http://www.w3.org/2000/svg">
<rect x="6" y="13" width="22" height="20" fill="#E9E8DF"/>
<path d="M144.95 15.8527C144.566 13.0572 141.296 10.8272 138.802 12.1073C137.046 13.0082 136.265 15.1283 134.717 16.3548C133.441 17.3642 131.751 17.6816 130.13 17.6863C126.01 17.6995 122.125 15.936 118.215 14.6307C111.4 12.3554 103.939 11.4306 97.0346 13.4149C91.6621 14.9576 86.7163 18.4858 83.8822 23.2593C77.6232 21.2679 70.8316 21.454 65.5584 23.9835C58.9785 27.1405 57.4035 32.6598 50.122 33.4332C48.9469 33.5573 44.6628 34.013 40.7505 31.5803C36.0535 28.6607 36.1659 24.239 33.6229 19.1287C34.8737 15.2307 35.4098 11.1002 35.1566 7.01126C35.0773 5.73104 34.7566 4.22174 33.5791 3.73969C32.4265 3.2684 31.1803 4.07497 30.1933 4.83976C30.03 4.96623 29.8667 5.09271 29.7034 5.21919C29.6773 4.9746 29.6501 4.73238 29.6264 4.46872C29.6264 4.46872 29.5176 3.25291 28.5128 1.09696C28.3578 0.765286 28.1176 0.339317 27.6549 0.116223C27.1507 -0.125982 26.5295 0.0350916 26.0821 0.371552C25.6348 0.708025 25.3247 1.19361 25.0253 1.66848C24.3378 2.75661 25.3934 0.128145 21.4575 7.31913C21.3592 7.4981 21.2752 7.65322 21.1817 7.82262C20.7344 7.74029 20.2752 7.68779 19.8019 7.68183C17.1416 7.64603 15.2327 8.90478 10.5406 8.5027C9.18796 8.38696 8.56072 8.21873 7.82585 8.31657C7.40338 6.62471 6.98088 4.9329 6.5596 3.24229C6.42232 2.69106 5.86729 2.35701 5.32058 2.4954C4.77387 2.6338 4.4425 3.19339 4.57977 3.74459C5.00342 5.4436 5.42828 7.14383 5.85193 8.84269C5.87323 8.9274 5.91939 8.99541 5.95844 9.06819C5.65548 9.27341 5.37265 9.50487 5.11111 9.76377C4.22 7.8989 3.10995 6.14277 1.80952 4.54135C1.45213 4.10228 0.809532 4.03786 0.374037 4.39698C-0.0614582 4.75731 -0.126531 5.40518 0.230844 5.84425C1.4332 7.32375 2.4604 8.94875 3.28159 10.673C3.41886 10.9605 3.6733 11.1406 3.95732 11.2122C2.99048 12.7204 2.43901 14.4145 2.15972 15.2783C0.688727 19.8266 -1.36817 36.9095 10.2449 53.443C12.6271 56.8349 15.2815 59.7546 18.0887 62.2877C17.5029 64.4711 16.7858 66.6176 15.9053 68.697C15.4249 69.8305 14.826 71.0284 13.7302 71.5772C12.9207 71.9817 11.9622 71.9638 11.1303 72.3182C8.94329 73.25 8.62022 76.6218 10.2297 78.3818C11.8391 80.1428 14.6225 80.3731 16.8425 79.5224C19.0614 78.6705 20.827 76.9441 22.4329 75.1806C24.2009 73.2405 25.8505 71.193 27.3938 69.0669C41.4254 77.2625 56.34 78.3196 61.064 78.6525C63.7941 78.8446 66.6402 79.0248 69.5515 78.9723C73 79.1787 76.5146 79.0236 79.9525 78.8506L111.702 77.2446C113.92 77.1313 116.148 77.0203 118.36 77.2399C119.733 77.3759 121.141 77.636 122.474 77.2721C124.895 76.6099 126.401 73.8634 126.115 71.3505C125.83 68.8366 124.046 66.6699 121.855 65.4387C119.184 63.9389 115.856 63.6896 112.995 64.7741C112.102 65.113 111.256 65.5723 110.359 65.9016C106.71 67.2379 102.634 66.2763 99.0197 64.8433C98.5002 64.6369 97.9866 64.4138 97.4742 64.1883C100.319 60.071 102.615 54.7279 102.494 48.2566C102.468 46.8558 102.057 35.9327 93.3062 28.4329C93.0931 28.2503 92.8671 28.0869 92.6494 27.9115C93.9783 25.7996 95.8516 24.0101 98.0207 22.7871C101.803 20.655 106.338 20.1062 110.624 20.7397C113.45 21.1561 116.179 22.0593 118.952 22.7477C123.496 23.8764 128.179 24.4336 132.858 24.4002C135.657 24.3811 138.556 24.1222 141.003 22.7525C143.451 21.3828 145.335 18.6493 144.95 15.8539L144.95 15.8527ZM12.0381 29.7025C11.6251 29.7992 11.2132 29.5403 11.1174 29.1251C10.6688 27.1839 10.2215 25.2414 9.77301 23.3003C9.67716 22.8839 9.93396 22.4687 10.3458 22.3721C10.7588 22.2754 11.1706 22.5343 11.2665 22.9495C11.7138 24.8908 12.1623 26.832 12.6108 28.7731C12.7067 29.1895 12.4499 29.6059 12.0381 29.7025ZM17.7327 27.3604C17.438 27.6671 16.9528 27.6754 16.6487 27.3783C15.0452 25.8153 13.5577 24.1306 12.2025 22.3447C11.9457 22.0058 12.0096 21.5202 12.3457 21.2601C12.6818 21.0012 13.1635 21.0656 13.4215 21.4045C14.7303 23.1297 16.167 24.7561 17.7161 26.2653C18.0191 26.5647 18.0273 27.0538 17.7327 27.3604ZM18.5161 19.8832C18.3906 19.894 18.264 19.8999 18.1386 19.8999C16.7043 19.894 15.328 19.2258 14.4416 18.0709C13.8109 17.2393 13.4914 16.2227 13.4902 15.2026C13.4902 14.674 13.5766 14.1419 13.76 13.6337C13.9517 13.0991 14.5363 12.8235 15.0665 13.0168C15.5967 13.2101 15.87 13.7995 15.6783 14.334C15.5813 14.6061 15.5304 14.902 15.5304 15.2027C15.5292 15.7849 15.7209 16.3767 16.0594 16.8182C16.5256 17.441 17.3552 17.8478 18.1374 17.8419L18.341 17.8335C18.9019 17.7846 19.3966 18.2046 19.4451 18.7713C19.4936 19.3369 19.0782 19.8343 18.5161 19.8832Z" fill="black"/>
</svg>
