<svg width="112" height="90" viewBox="0 0 112 90" fill="none" xmlns="http://www.w3.org/2000/svg">
<rect x="30.3252" y="57" width="52.1999" height="24.4971" transform="rotate(0.760634 30.3252 57)" fill="#1D2124"/>
<rect x="38" y="12" width="31" height="20" fill="#E9E8DF"/>
<ellipse cx="56" cy="82.5" rx="12" ry="5.5" fill="#1D2124"/>
<path d="M37.0304 73.3765C37.0304 73.8483 37.1484 74.0842 37.3843 74.32C37.5022 74.438 37.6202 74.5559 37.7381 74.5559C37.856 74.5559 38.0919 74.6739 38.3278 74.6739H38.7996C39.3893 74.5559 39.9791 74.0842 40.6867 73.7303C41.0406 73.4944 41.5123 73.6124 41.7482 73.8483C41.8662 73.9662 42.1021 74.2021 42.5738 74.5559C43.0456 74.7918 43.6354 75.0277 44.1071 75.0277H44.461C45.0507 74.9098 45.5225 74.5559 45.9943 74.0842C46.466 73.6124 46.7019 73.1406 46.8199 72.9047C47.0558 72.6688 47.0558 72.4329 47.2917 72.0791C47.4096 71.8432 47.6455 71.4894 47.9993 71.1355C48.4711 70.5458 49.0608 70.074 50.2403 69.4843C51.5377 68.8946 52.8341 68.4228 54.1315 68.1869H54.2495C54.0136 68.069 53.7777 67.951 53.4239 67.8331C50.948 66.8895 48.825 66.1818 47.1737 65.9459C46.702 65.828 46.1122 65.828 45.5225 65.828C43.7533 65.828 41.7492 66.2998 40.2158 67.0075C38.5646 67.7151 37.2681 68.7766 36.4425 70.0732C36.4425 70.0732 35.9708 70.7809 35.7349 71.3706C35.8528 71.2527 36.0887 71.2527 36.2066 71.1347C36.5605 71.0168 37.0322 71.0168 37.2682 71.3706C37.504 71.6065 37.622 72.0783 37.3861 72.4321C37.1484 72.551 37.0304 73.0226 37.0304 73.3765Z" fill="black"/>
<path d="M49.5288 87.0552C51.4159 87.409 53.774 87.7628 56.4868 87.7628C59.1986 87.7628 61.5575 87.409 63.4447 86.9372C61.0858 85.7577 58.8459 84.4613 56.4868 83.2819C54.1279 84.6963 51.77 85.9937 49.5288 87.0552Z" fill="black"/>
<path d="M107.665 40.4767C107.194 36.9393 101.887 38.5896 103.184 41.6562C101.887 41.4203 101.061 42.128 100.708 43.0715C100.355 44.1331 100.826 45.1945 101.888 45.6654C99.1761 45.7834 94.8122 45.6654 90.4491 43.3065C82.3126 39.0613 79.1282 29.9814 78.0677 26.444C79.7189 26.2081 81.4871 26.0902 83.1384 25.8543C83.6102 25.8543 83.964 25.3825 83.964 24.9107C83.964 24.439 83.4922 24.0851 83.0204 24.0851C81.2513 24.321 79.4831 24.5569 77.7138 24.6748C77.5958 24.0851 77.4779 23.6133 77.36 23.0236C78.8933 22.6698 80.4257 22.4339 81.9588 22.198C82.4306 22.198 82.7844 21.7262 82.7844 21.2544C82.7844 20.7827 82.3126 20.4288 81.8409 20.4288C80.1896 20.6647 78.6572 20.9006 77.124 21.2544C76.0625 15.5939 75.7087 10.0515 72.5252 3.92005C69.6954 -1.7405 66.9826 0.26471 64.3887 5.33541C57.7847 3.80211 50.356 2.15169 43.9879 5.45335C41.276 0.0287305 38.4453 -2.68311 35.7335 3.68417C32.7857 10.7599 32.5497 16.3015 31.4883 21.9621C29.7191 21.4903 27.8329 21.0185 26.0637 20.5467C25.5919 20.4288 25.1201 20.6647 25.0021 21.1364C24.8842 21.6082 25.1201 22.08 25.5919 22.198C27.479 22.6697 29.2472 23.1415 31.1344 23.6133C31.1344 23.7313 31.0165 23.9671 31.0165 24.0851C30.8986 24.321 30.8986 24.6748 30.7806 25.0286C29.0114 24.7927 27.2432 24.5569 25.474 24.321C25.0022 24.203 24.5304 24.5569 24.4124 25.0286C24.2945 25.5004 24.6483 25.9722 25.1201 26.0901C26.8893 26.326 28.5395 26.5619 30.3088 26.7978C29.1293 31.5146 26.8894 37.8828 21.4648 41.6561C17.5735 44.3679 13.3283 44.9575 10.6155 45.0755C12.6206 43.5422 10.4976 40.5944 8.37456 42.1277C9.55402 38.944 4.95515 37.057 3.42181 40.0047C3.18592 39.7688 2.59621 39.1791 2.00646 39.1791C0.827002 39.297 0.237283 40.9483 0.11934 41.42V41.538C-0.47038 43.4251 1.2988 46.0191 1.65263 46.6087C2.12441 47.1984 2.83209 48.142 4.01151 49.0846C6.84132 51.3256 10.1437 51.4435 13.3274 51.6785C15.8033 51.7964 19.3416 51.6785 23.5868 50.499C15.3324 58.9892 13.6813 71.0178 18.87 79.2723C22.0537 84.343 27.95 88.2343 34.554 88.9418C36.3232 89.1777 37.8555 89.0598 39.2708 88.9418C39.3888 88.8239 39.3888 88.8239 39.5067 88.8239C41.04 88.3521 49.7661 85.2865 56.2513 80.6874C58.2564 79.2721 60.0246 77.9756 62.1475 75.8526C62.8552 75.145 63.2091 74.6732 63.7988 74.0835C64.2706 73.4937 64.8603 72.904 65.8039 72.0784C67.2192 70.781 68.2798 69.9554 69.1053 69.3666C69.9309 68.7768 70.6386 68.423 70.9924 68.305C72.4078 67.5974 73.7043 67.3615 74.5298 67.1256C74.5298 67.1256 74.6477 67.1256 74.6477 67.0076C74.7657 67.0076 74.7657 66.8897 74.8836 66.8897L74.7657 66.7717C74.5298 66.6538 74.176 66.5358 74.058 66.4179C73.7042 66.3 73.3504 66.182 73.1145 66.182C72.6427 66.182 72.0529 66.3 71.8171 66.4179C71.5812 66.5358 71.2273 66.4179 70.9915 66.3C70.6376 66.0641 70.2838 65.7102 69.6941 65.4743C69.6941 65.4743 69.5761 65.4743 69.4582 65.3564C69.2223 65.2385 68.9864 65.2385 68.6326 65.1205C67.9249 64.8846 66.9813 64.7667 65.9207 64.7667C64.8592 64.7667 63.4448 65.0026 61.9115 65.7102C60.3782 66.3 58.8457 67.2435 57.1946 68.658C57.0767 68.658 57.0767 68.776 56.9588 68.776H56.8408H56.7229C56.369 68.8939 55.4255 69.0118 54.247 69.2477C53.0675 69.4836 51.8881 69.9554 50.8275 70.4272C49.884 70.899 49.5301 71.2528 49.1763 71.6066C48.9404 71.8425 48.8225 72.0784 48.7045 72.1964C48.5866 72.4323 48.4687 72.6681 48.2328 73.1399C48.1148 73.3758 47.761 73.9655 47.1712 74.5553C46.5815 75.145 45.7559 75.7347 44.6953 75.9706C44.4594 75.9706 44.2236 76.0886 43.9877 76.0886C42.9262 76.0886 42.1005 75.7347 41.5118 75.263C41.2759 75.145 41.04 74.9091 40.922 74.7912C40.4503 75.145 39.8605 75.3809 39.1529 75.6168C38.917 75.7347 38.6811 75.7347 38.2093 75.7347C37.8555 75.7347 37.5017 75.7347 37.1478 75.6168C36.794 75.4988 36.3222 75.263 35.9683 74.9091C35.3786 74.3194 35.1427 73.4938 35.1427 72.7861V72.4323H35.0248C34.9068 72.4323 34.671 72.4323 34.553 72.3143C34.4351 72.3143 34.1992 72.1964 34.0812 71.9605C33.9633 71.8426 33.8453 71.6067 33.7274 71.4887C33.7274 71.2528 33.6095 71.1349 33.6095 71.017C33.6095 70.6631 33.7274 70.3093 33.8453 70.0734C33.9633 69.7196 34.0812 69.4837 34.1992 69.2478C34.4351 68.776 34.6709 68.3042 34.7889 68.3042C35.7324 66.771 37.2648 65.5924 39.0341 64.6489C38.5623 64.413 37.9726 64.1771 37.3828 63.9412C36.9111 63.8233 36.6752 63.3515 36.7931 62.8797C36.9111 62.4079 37.3828 62.1721 37.8546 62.29C39.27 62.7618 40.3305 63.3515 41.0383 63.8233C42.4537 63.4695 43.8682 63.2336 45.2835 63.2336C45.8732 63.2336 46.5809 63.2336 47.1707 63.3515C49.1757 63.5874 51.2979 64.413 53.7747 65.3566C54.7183 65.7104 55.4259 66.0643 55.6618 66.1822C56.0157 66.3001 56.2516 66.536 56.4874 66.654C58.0207 65.4745 59.6712 64.531 61.0863 63.8242C62.7375 63.1165 64.3877 62.7626 65.8031 62.7626C68.397 62.7626 70.2842 63.7062 70.402 63.7062C70.8737 63.9421 71.3455 64.178 71.6994 64.4139C72.0532 64.2959 72.525 64.178 73.1147 64.178C73.5865 64.178 74.1762 64.2959 74.766 64.4139C74.8839 64.4139 75.1198 64.5318 75.4736 64.7677C75.8274 64.8856 76.1813 65.1215 76.4172 65.4754C76.5351 65.5933 76.5351 65.7112 76.6531 65.8292C77.5966 65.5933 78.4222 65.4754 79.3649 65.4754C79.9546 65.4754 80.5444 65.4754 81.1341 65.5933C81.6059 65.7112 81.9597 66.183 81.8417 66.6548C81.7238 67.1266 81.252 67.4804 80.7802 67.3625C80.3084 67.2445 79.8367 67.2445 79.2469 67.2445C77.9495 67.2445 76.6531 67.5984 75.5916 68.0701C75.4736 68.0701 75.4736 68.1881 75.3557 68.1881C75.2378 68.306 75.0019 68.306 74.8839 68.424C74.648 68.5419 74.4121 68.5419 74.1763 68.5419C73.4686 68.6599 72.643 69.0137 71.5824 69.4855C71.2286 69.6034 70.7568 69.9572 69.9311 70.429C69.1055 70.9008 68.162 71.7264 66.7474 73.0229C65.9218 73.8485 65.3321 74.4383 64.8603 74.91C64.3885 75.4997 63.9168 75.9715 63.2091 76.6792C61.204 78.6843 59.4358 79.9807 57.6665 81.2781C60.6143 82.8114 63.5627 84.4618 66.6285 85.9949C66.7464 86.1128 66.8644 86.2308 66.9823 86.3487C69.9301 87.7641 76.0623 89.7681 82.3124 87.0564C87.0293 85.0513 89.3881 81.3958 90.095 80.2164C94.9298 72.4338 93.1607 60.759 86.0857 50.3828C92.3359 53.2126 101.416 54.1561 107.547 50.5008C111.556 49.0854 115.094 37.6466 107.665 40.4773L107.665 40.4767ZM45.8731 15.0061C44.6937 16.4214 42.9253 17.2471 41.0383 17.2471C40.3307 17.2471 39.505 17.1291 38.7974 16.7753C38.3256 16.5394 38.0897 16.0676 38.3256 15.5958C38.5615 15.124 39.0333 14.8882 39.5051 15.124C39.9768 15.3599 40.5666 15.4779 41.0384 15.4779C42.3358 15.4779 43.6322 14.8882 44.4578 13.9446C44.8116 13.5907 45.2834 13.4728 45.7552 13.8266C46.109 14.0625 46.227 14.5343 45.8731 15.0061ZM60.1418 24.9116C60.0238 25.0295 59.7879 25.3834 59.1982 25.8552C58.6085 26.209 57.7829 26.6808 56.7223 26.6808H56.4864C55.5429 26.6808 54.7172 26.209 54.2455 25.8552C54.0096 25.7372 53.8916 25.5013 53.7737 25.3834C53.5378 25.6193 53.184 25.8551 52.7122 26.091C52.3583 26.3269 51.6507 26.6808 50.7071 26.6808H50.4712C49.2918 26.5628 48.4661 25.9731 48.1123 25.6192C47.7585 25.2654 47.7585 24.6757 47.9944 24.3218C48.2303 23.968 48.9379 23.968 49.2918 24.2039C49.4097 24.3218 49.8815 24.6757 50.5892 24.7936H50.7072C51.1789 24.7936 51.5328 24.6757 51.8866 24.4398C52.3584 24.2039 52.7122 23.8501 52.9481 23.4962C52.8302 21.2553 52.5943 19.1331 52.4764 16.8922V16.7742C52.2405 16.7742 51.8866 16.7742 51.6507 16.6563C51.179 16.5383 50.8251 16.0666 50.9431 15.5948C51.061 15.123 51.5328 14.7691 52.0046 14.8871C52.2405 14.8871 52.4764 15.005 52.7123 15.005C53.184 15.005 53.6558 14.8871 54.1276 14.7692C54.5994 14.5333 55.0712 14.7691 55.3071 15.2409C55.543 15.7127 55.3071 16.1845 54.8353 16.4204C54.5994 16.5383 54.3635 16.5383 54.1276 16.6563V16.7742C54.2456 19.0152 54.4815 21.1374 54.5994 23.3783V23.7321V23.8501C54.5994 23.968 54.8353 24.0859 55.1891 24.3218C55.543 24.5577 56.0147 24.7936 56.4865 24.7936H56.6045C57.1942 24.7936 57.666 24.5577 58.0198 24.3218C58.3737 24.0859 58.6096 23.8501 58.6096 23.7321C58.9634 23.3783 59.4352 23.2603 59.907 23.6142C60.3778 23.968 60.3777 24.5577 60.1418 24.9116ZM68.2782 16.1855C67.4526 16.8932 66.3911 17.1291 65.4484 17.1291C64.9767 17.1291 64.5049 17.1291 64.0331 17.0111C62.6177 16.7753 61.2033 16.1855 60.0238 15.242C59.67 15.0061 59.552 14.4164 59.7879 13.9446C60.0238 13.5907 60.6135 13.4728 61.0853 13.7087C62.0289 14.4163 63.2084 14.8881 64.3868 15.124C64.7406 15.242 65.0945 15.242 65.4483 15.242C66.156 15.242 66.7457 15.124 67.2175 14.7702C67.5713 14.4164 68.161 14.5343 68.5149 14.8881C68.6319 15.242 68.6321 15.8317 68.2782 16.1855Z" fill="black"/>
</svg>
