<svg width="35" height="52" viewBox="0 0 35 52" fill="none" xmlns="http://www.w3.org/2000/svg">
<path d="M29.2316 26.5626C27.5082 26.0572 25.794 25.3471 24.352 24.2029C22.9092 23.0554 21.7631 21.4438 21.4442 19.5854C21.3968 19.3074 21.3682 19.0201 21.3682 18.7298C21.3682 18.2464 21.4472 17.752 21.6547 17.2873C21.8246 16.9092 22.0815 16.5675 22.4072 16.3023C22.7325 16.0379 23.1304 15.8486 23.5726 15.801C23.6456 15.793 23.7186 15.7892 23.7907 15.7892C24.2018 15.7896 24.5928 15.911 24.9339 16.1075C25.2754 16.3048 25.5695 16.5773 25.7923 16.8985C26.2448 17.5534 26.3985 18.333 26.3994 19.0706L26.3981 19.1822C26.3964 19.2569 26.3942 19.327 26.3942 19.3915C26.3938 19.4887 26.3998 19.5718 26.413 19.6308C26.4263 19.6907 26.4425 19.7221 26.4608 19.7454C26.5227 19.8261 26.6393 19.8723 26.7421 19.8995C27.1707 20.0192 27.8737 20.152 28.4799 20.2539C29.0878 20.3561 29.6051 20.4304 29.6901 20.4423C29.9189 20.475 30.0777 20.6855 30.0448 20.913C30.0123 21.1404 29.8002 21.2983 29.5714 21.2656C29.4822 21.2529 28.9588 21.1782 28.3398 21.0738C27.7191 20.969 27.0084 20.837 26.5158 20.6999H26.5154C26.3852 20.6617 26.0578 20.5743 25.8064 20.2636L25.8059 20.2632C25.689 20.1172 25.6262 19.9534 25.5946 19.8044C25.5626 19.6546 25.5579 19.5158 25.5575 19.391C25.5575 19.3087 25.5601 19.2327 25.5613 19.1644L25.5622 19.0698C25.5631 18.4451 25.4269 17.8335 25.1033 17.3697C24.9518 17.1507 24.7443 16.9588 24.5138 16.8264C24.2833 16.6932 24.0327 16.6202 23.7903 16.6206C23.7471 16.6206 23.7045 16.6227 23.6618 16.6274C23.4048 16.655 23.1555 16.7674 22.9361 16.9457C22.7175 17.1231 22.5344 17.3646 22.4179 17.6252C22.2685 17.9592 22.2036 18.3352 22.2036 18.7294C22.2036 18.9654 22.2271 19.2073 22.2676 19.4458C22.5391 21.0497 23.5563 22.5075 24.8733 23.5528C26.1911 24.6007 27.8025 25.2772 29.4673 25.7648C30.2309 25.9889 31.0676 26.151 31.8458 26.1506C32.3286 26.1506 32.7871 26.0886 33.1943 25.9494C33.6024 25.8093 33.9589 25.5954 34.2598 25.2792C34.7648 24.7496 35 23.9912 35 23.1945C35 22.8631 34.959 22.5278 34.8826 22.2074C34.8122 21.9124 34.7392 21.6302 34.6239 21.3153V21.3157C34.4143 20.7474 34.1027 20.0849 33.3437 19.0697C32.7461 18.2723 32.3312 17.8674 31.9748 17.4906C31.6192 17.1171 31.3101 16.7436 31.0515 16.1287C30.7812 15.4933 30.6869 14.9297 30.6472 14.58C30.6408 14.5227 30.6464 14.4671 30.6617 14.4153C30.5046 13.4515 30.3356 12.4227 30.1546 11.3223C30.2011 11.3371 30.2506 11.3469 30.3023 11.3439C31.0903 11.3036 31.8749 11.1979 32.6454 11.029C32.8707 10.9793 33.0133 10.7574 32.9634 10.5333C32.9134 10.3092 32.6902 10.1675 32.4648 10.2171C31.7395 10.3763 31.001 10.4756 30.2591 10.5138C30.1733 10.518 30.0999 10.5541 30.0358 10.6016C29.9927 10.3389 29.9488 10.0728 29.9039 9.80204C29.9573 9.80968 30.0132 9.80713 30.0687 9.79228C30.8209 9.59493 31.5722 9.39758 32.3244 9.20024C32.5476 9.14167 32.6812 8.91419 32.6223 8.69222C32.5634 8.47026 32.3346 8.33742 32.1113 8.39598C31.3592 8.59333 30.6074 8.79068 29.8557 8.98802C29.8258 8.99566 29.8028 9.01349 29.7763 9.02665C29.6756 8.41508 29.5718 7.78611 29.4643 7.13423C29.3076 6.18314 28.2857 -0.021178 27.1289 0.00598388C26.8608 0.01235 26.5052 0.515692 25.7944 1.52324C25.266 2.27231 24.8771 2.94544 24.6052 3.45814C22.5707 3.44796 20.5358 3.43777 18.5014 3.42801C18.0322 2.95353 17.3163 2.19856 16.4967 1.20118C15.8116 0.366797 15.5529 -0.0304505 15.2234 0.00181776C14.5289 0.0701472 14.1998 1.97616 14.0021 3.06176C14.0021 3.06176 13.9069 3.58505 12.6733 9.19816C12.6152 9.14129 12.5452 9.09588 12.459 9.08061C11.6949 8.94692 10.9457 8.73047 10.229 8.43636C10.0156 8.34851 9.77101 8.44994 9.68265 8.66214C9.59428 8.87434 9.69631 9.11753 9.90974 9.20538C10.6828 9.52283 11.4905 9.75583 12.3143 9.90012C12.3882 9.91328 12.4586 9.8997 12.5248 9.87636C12.4855 10.0555 12.4449 10.2379 12.4035 10.4264C12.3587 10.4128 12.3126 10.4022 12.2631 10.4043C12.1393 10.4094 12.0151 10.4124 11.8913 10.4124C11.3073 10.4124 10.7233 10.3538 10.1513 10.2375C9.92511 10.1917 9.70398 10.3368 9.65788 10.5618C9.61178 10.7867 9.75777 11.0065 9.98402 11.0524C10.6115 11.1797 11.251 11.2438 11.8913 11.2438C12.0014 11.2438 12.112 11.2404 12.2221 11.2366C11.995 12.2356 11.7363 13.2058 11.4605 14.1315C11.5135 14.2333 11.5276 14.3543 11.4832 14.4697C10.5492 16.8914 9.74454 18.2036 9.15377 18.9672C9.05388 19.0962 8.85666 19.347 8.62189 19.7213C8.38797 20.0944 8.12117 20.5854 7.89578 21.1779C7.78053 21.4805 7.69643 21.7737 7.61874 22.1001C7.54233 22.4205 7.50135 22.7558 7.50135 23.0868C7.50135 23.8834 7.73698 24.6422 8.24154 25.1719C8.54249 25.4881 8.89892 25.702 9.30659 25.842C9.71383 25.9817 10.1723 26.0436 10.6547 26.0432C11.4328 26.0436 12.2699 25.8815 13.0332 25.6574C14.698 25.1702 16.3091 24.4933 17.6272 23.4455C18.9441 22.4006 19.9613 20.9428 20.2333 19.3385C20.2743 19.0995 20.2973 18.8581 20.2973 18.6217C20.2973 18.2274 20.2325 17.8509 20.0831 17.5174C19.967 17.2568 19.7834 17.0149 19.5648 16.8379C19.3459 16.6601 19.0966 16.5472 18.8396 16.52C18.7969 16.5154 18.7542 16.5132 18.7111 16.5132C18.4686 16.5132 18.2181 16.5862 17.9875 16.7195C17.757 16.8519 17.5496 17.0442 17.3976 17.2631C17.074 17.7266 16.9383 18.3382 16.9392 18.9629L16.94 19.0576V19.058C16.9413 19.1259 16.9438 19.2014 16.9438 19.2829C16.9434 19.4077 16.9387 19.5469 16.9067 19.6967C16.8751 19.8457 16.8124 20.0099 16.695 20.1564C16.4436 20.467 16.1161 20.5545 15.9855 20.5931H15.9851C15.4925 20.7297 14.7821 20.8617 14.1611 20.9665C13.5421 21.0709 13.0188 21.1456 12.9295 21.1584C12.7007 21.191 12.489 21.0328 12.4561 20.8057C12.4233 20.5782 12.5825 20.3677 12.8109 20.335C12.8962 20.3231 13.4132 20.2489 14.021 20.1466C14.6272 20.0447 15.3302 19.9119 15.7588 19.7922C15.8621 19.7651 15.9782 19.7184 16.0401 19.6382C16.0584 19.6148 16.0751 19.583 16.0879 19.5227C16.1011 19.4637 16.1067 19.3801 16.1067 19.2825C16.1067 19.2184 16.1045 19.1488 16.1028 19.0745V19.075C16.102 19.0376 16.1016 19.0003 16.1016 18.9629C16.1024 18.2253 16.2552 17.4461 16.7081 16.7909C16.931 16.47 17.2255 16.1971 17.567 16.0002C17.9081 15.8037 18.2995 15.6823 18.7102 15.6819C18.7828 15.6819 18.8553 15.6857 18.9287 15.6938C19.3706 15.7413 19.7688 15.9306 20.0937 16.195C20.4194 16.4603 20.6768 16.8019 20.8467 17.18C21.0545 17.6448 21.1331 18.1392 21.1331 18.6226C21.1331 18.9128 21.1045 19.2002 21.0571 19.4781C20.7378 21.3366 19.5917 22.9481 18.1489 24.0952C16.7074 25.2398 14.993 25.9498 13.2693 26.4554C12.4527 26.6943 11.5469 26.8747 10.6543 26.8751C10.101 26.8751 9.55121 26.8051 9.03388 26.6285C8.51736 26.4524 8.03286 26.1655 7.63248 25.7428C7.63034 25.7407 7.62864 25.7381 7.62693 25.736C5.79475 27.0721 4.32768 28.3109 3.2374 29.2933C2.3384 30.1027 1.66607 30.7656 1.19092 31.3877C0.715385 32.0112 0.433227 32.585 0.284247 33.2648C0.214666 33.5853 0.189908 33.8641 0.189908 34.1009C0.190762 34.6149 0.303033 34.926 0.347849 35.0452C0.739714 36.0914 1.77449 36.6202 1.99381 36.7237C2.64351 37.0467 3.61082 37.2355 4.7365 37.4435H4.73693C6.10423 37.6986 6.92547 37.842 7.52104 37.9583C8.11525 38.0742 8.4943 38.1663 8.93828 38.3122C9.19612 38.3967 9.59055 38.5359 10.0631 38.7485C10.2206 38.8194 10.3179 38.979 10.3081 39.1504C10.3073 39.1674 10.3056 39.1988 10.3056 39.2438C10.3051 39.3737 10.3196 39.6139 10.3978 39.8685C10.4763 40.1245 10.6133 40.3893 10.8571 40.6053C11.1614 40.8748 11.5422 40.9911 11.9452 40.9919C12.3631 40.9932 12.7929 40.857 13.0951 40.6579C13.4443 40.4287 13.6501 40.1168 13.7794 39.7641C13.9075 39.4136 13.9467 39.0278 13.9463 38.7129C13.9463 38.3937 13.9079 38.1505 13.8963 38.0826C13.8409 37.7605 13.7418 37.5025 13.5967 37.2334C13.452 36.9656 13.2569 36.6889 13.023 36.3591C12.2725 35.3002 11.4362 34.7583 11.2775 34.6577C10.6209 34.241 10.0028 34.0321 9.5751 33.9218C9.35141 33.8641 9.21695 33.6374 9.275 33.4151C9.33305 33.1927 9.56101 33.059 9.7847 33.1167C10.2722 33.2423 10.9774 33.48 11.7278 33.9566C11.9314 34.086 12.8676 34.6951 13.7072 35.88C13.9402 36.2093 14.1545 36.5094 14.3334 36.8387C14.5118 37.1668 14.651 37.5258 14.7214 37.9434C14.7376 38.0381 14.7833 38.3288 14.7833 38.7125C14.7833 38.7252 14.782 38.74 14.782 38.7532C15.4638 39.0015 16.1237 39.1942 16.7325 39.3503C16.0302 42.2965 13.8395 44.7382 10.4728 45.4766C7.79505 46.0644 5.13267 44.7895 3.16652 42.9056C2.4767 42.2448 1.54438 40.6006 0.465245 41.2873C-0.3838 41.8276 0.125026 43.0002 0.458842 43.7467C2.87326 49.1495 9.61437 50.1633 14.0051 47.3325C17.0333 45.3803 18.8159 42.9005 19.5015 39.9598C20.3284 40.1207 21.2039 40.2574 22.1063 40.2917C22.759 43.223 22.6903 45.4694 22.4115 47.1399C22.2446 48.1398 21.7844 50.2461 22.9024 51.3139C23.9286 52.2934 25.8189 51.9552 26.1552 51.8949C26.8946 51.7625 27.8914 51.5291 28.3523 50.6938C28.7736 49.9316 28.5546 48.8239 27.7782 48.4236C27.446 48.2522 27.0158 48.1881 26.8309 47.8647C26.6679 47.5795 26.7481 47.2502 26.7878 47.0952C28.7356 39.4984 29.7135 36.9648 29.7135 36.9643C29.9381 36.4512 30.1583 35.9109 30.3692 35.3431C30.4913 35.0137 30.6048 34.6895 30.7116 34.3691C31.1483 33.3565 31.4701 32.3527 31.7403 31.4828C32.1847 30.0534 32.4033 28.8692 32.3405 26.959C32.1762 26.9726 32.0114 26.9811 31.8458 26.9811C30.954 26.9819 30.0482 26.8016 29.2316 26.5626ZM23.567 8.04587C23.7202 7.87399 23.9845 7.85828 24.1573 8.01064C24.5953 8.3977 25.1712 8.64088 25.7551 8.68544C25.811 8.68968 25.8657 8.69223 25.9186 8.69223C26.0787 8.69223 26.2183 8.66974 26.3293 8.62221C26.398 8.59335 26.4637 8.54794 26.5094 8.49871C26.5555 8.44905 26.5811 8.39982 26.5909 8.35568C26.6413 8.1316 26.865 7.99069 27.0904 8.04078C27.3157 8.09086 27.4575 8.31324 27.4071 8.53733C27.3597 8.74699 27.2526 8.92523 27.1207 9.06571C26.9879 9.20662 26.8291 9.31356 26.6575 9.38656C26.4074 9.49224 26.1529 9.52322 25.9182 9.52322C25.84 9.52322 25.7636 9.51982 25.6894 9.51388C24.9193 9.45362 24.18 9.14125 23.6016 8.63239C23.43 8.48046 23.4137 8.21775 23.567 8.04587ZM18.947 8.70158C18.515 9.28938 17.8383 9.66921 17.1089 9.7333C17.0393 9.73924 16.9693 9.74222 16.8997 9.74222C16.2415 9.74094 15.5969 9.48587 15.121 9.0271C14.9554 8.86709 14.9519 8.60355 15.1129 8.43887C15.2738 8.27421 15.5389 8.27081 15.7045 8.43081C16.0144 8.73255 16.4631 8.91123 16.8998 8.91039C16.9459 8.91039 16.992 8.90827 17.0377 8.90445C17.5162 8.8654 17.99 8.59972 18.2705 8.21267C18.4062 8.02678 18.6679 7.98562 18.8549 8.12057C19.041 8.25596 19.0827 8.51568 18.947 8.70158ZM21.1193 11.7544C20.926 11.8736 20.7091 11.9296 20.4914 11.9301C20.1934 11.9305 19.8699 11.8189 19.6505 11.5451C19.507 11.3652 19.5378 11.1033 19.7188 10.9611C19.8998 10.8185 20.1631 10.8491 20.3061 11.029C20.3305 11.0621 20.3949 11.0978 20.4914 11.0982C20.5584 11.0986 20.6297 11.0783 20.6771 11.0481C20.7488 11.004 20.8133 10.934 20.8649 10.8385C20.9166 10.7438 20.952 10.6254 20.9644 10.5079C20.987 10.3008 21.1603 10.142 21.3699 10.1369C21.5795 10.1318 21.7605 10.2817 21.7934 10.4875C21.8122 10.6076 21.8527 10.7264 21.9073 10.8211C21.962 10.9166 22.0286 10.9866 22.1016 11.0316C22.1515 11.063 22.2258 11.0842 22.2945 11.0834C22.3897 11.0829 22.4533 11.049 22.4789 11.0163C22.6271 10.8402 22.8909 10.8168 23.068 10.9641C23.2452 11.1114 23.2686 11.3736 23.1205 11.5498C22.8998 11.8099 22.5852 11.9152 22.2945 11.9148C22.0747 11.9143 21.8565 11.8575 21.6619 11.7386C21.5611 11.6767 21.4745 11.602 21.3972 11.5209C21.3178 11.6088 21.2261 11.6886 21.1193 11.7544Z" fill="black"/>
</svg>
