<svg width="43" height="41" viewBox="0 0 43 41" fill="none" xmlns="http://www.w3.org/2000/svg">
<path d="M42.3066 37.2004C41.7517 36.7221 41.0379 36.4761 40.4188 36.0852C39.918 35.7689 39.4825 35.3598 39.0603 34.9433C37.0441 32.9534 35.5554 31.0502 35.5554 31.0502C35.1616 30.5296 34.7012 29.884 34.1895 29.1301C34.0582 28.9364 33.9231 28.7351 33.7848 28.527C34.0972 28.4033 34.4348 28.2525 34.7882 28.0609C35.9695 27.4199 37.2747 26.3732 38.1036 24.6694C38.6437 23.5587 38.8385 22.4661 38.8388 21.4563C38.8434 18.9138 37.5757 16.8982 37.4932 16.7776L37.4911 16.7744L37.4778 16.7555C37.4652 16.7379 37.4448 16.7101 37.4167 16.6732C37.3602 16.5998 37.2714 16.4908 37.1472 16.3555C36.8991 16.0849 36.5099 15.7095 35.955 15.3025C34.8446 14.4892 33.0716 13.5498 30.4205 13.0777H30.4202C30.3679 13.0682 30.2984 13.0577 30.2219 13.0577C30.1198 13.0577 30.0169 13.077 29.9331 13.1283C29.8379 13.1849 29.7393 13.303 29.6677 13.4738C29.5962 13.6432 29.554 13.8587 29.5544 14.0748C29.5533 14.3648 29.6298 14.6519 29.7614 14.8428C29.8871 15.0276 30.0619 15.1412 30.283 15.2287C30.5027 15.3155 30.7567 15.3644 30.9978 15.4213C32.0251 15.6677 33.0169 16.1857 33.8524 16.8328C34.6873 17.4813 35.3671 18.2569 35.7562 19.053C36.0714 19.7015 36.2304 20.4465 36.2307 21.2145C36.2304 22.3311 35.8942 23.5004 35.1824 24.488C34.5023 25.4313 33.5443 26.1083 32.4658 26.4724C32.3391 26.2689 32.2103 26.0605 32.0801 25.8482C31.1767 24.3752 30.1948 22.6928 29.1683 20.8209C28.0867 18.4502 26.346 16.7871 24.3635 15.3162C25.5108 12.1102 26.22 9.84606 26.638 8.16957C26.9847 6.77991 27.157 5.6977 28.1077 4.79273C28.672 4.25605 29.2613 4.01916 29.534 3.227C29.5705 3.12121 29.8684 2.21235 29.4255 1.38009C29.2697 1.08767 29.0676 0.888397 28.9367 0.759761C28.7419 0.568214 28.3958 0.227644 27.9014 0.0789787C27.1981 -0.132254 26.3667 0.0954968 25.8803 0.580163C25.3563 1.10174 25.323 1.82928 25.2861 2.2015C25.1823 3.24782 24.4126 4.50116 22.8464 7.00497C21.6076 8.98477 20.2645 10.6093 19.0222 11.9068C17.5033 11.1248 16.0275 10.5421 14.662 10.1052C14.8378 9.47927 15.1723 8.8948 15.6299 8.43575C15.7682 8.29692 15.7678 8.07233 15.6292 7.93421C15.4906 7.79573 15.2663 7.79608 15.1284 7.93491C14.5869 8.47933 14.1942 9.1619 13.9847 9.89888C13.7861 9.84053 13.5923 9.78711 13.3997 9.73475C13.5092 9.0631 13.6523 8.3971 13.831 7.74055C13.8826 7.55146 13.771 7.35641 13.5822 7.30509C13.3934 7.25378 13.1986 7.36519 13.1473 7.55428C12.968 8.21362 12.8224 8.88212 12.7101 9.55621C10.6142 9.04096 8.92788 8.86523 7.9884 8.77878C5.87989 8.58477 4.11287 8.63608 2.88804 8.72078C2.87752 8.94853 2.89436 9.2065 2.96385 9.48065C3.27725 10.7128 4.42343 11.3157 4.70841 11.4559C4.47362 12.2133 4.25288 13.0374 4.06372 13.9248C3.73558 15.4646 3.56818 16.8855 3.49484 18.1413C1.51687 18.4169 0.102206 19.155 0.00535586 20.0406C-0.0100863 20.1812 0.00570678 20.3453 0.0811604 20.5344C0.830428 20.5369 1.89382 20.5766 3.16105 20.7484C4.30124 20.9031 4.87156 20.9804 5.46434 21.2103C5.82476 21.3498 6.14798 21.5224 6.44802 21.7086C6.01355 22.187 5.57908 22.6657 5.14495 23.1444C5.01335 23.2895 5.02422 23.5138 5.16881 23.6455C5.31375 23.7773 5.53766 23.7665 5.66926 23.6216C6.12479 23.1194 6.58071 22.6175 7.03621 22.1157C7.18326 22.2316 7.32083 22.3497 7.44963 22.4692L6.37152 24.2237C6.26905 24.3907 6.32099 24.6089 6.48769 24.7119C6.65439 24.8145 6.87232 24.7625 6.97516 24.5956C7.30329 24.0614 7.63143 23.5275 7.95992 22.9932C8.24734 23.3201 8.47195 23.6287 8.62672 23.8673C5.51521 32.4293 3.80227 36.3846 2.88732 37.781C2.69079 38.0811 1.965 39.1271 2.33107 39.9045C2.61042 40.4982 3.3948 40.6806 3.65346 40.7119C4.63229 40.831 5.80653 40.6472 6.26868 39.7752C6.62208 39.1085 6.42204 38.2927 6.53189 37.5463C6.6828 36.5172 7.25379 35.8845 7.72688 35.2505C8.59513 34.0871 9.74762 32.3766 11.2177 30.11C11.3118 30.2583 11.4079 30.407 11.5122 30.557L11.5079 30.5648C10.8664 31.945 10.8303 33.6344 11.5729 34.9626C11.9596 35.6543 12.5442 36.2462 12.7714 37.0057C12.9985 37.7652 12.6366 38.7978 11.8473 38.86C11.4929 38.8877 11.1549 38.712 10.8015 38.6737C10.1312 38.6006 9.40686 39.216 9.55177 39.8753C9.70654 40.5775 10.58 40.8011 11.2939 40.8777C12.4468 41.0011 13.6263 41.0963 14.7539 40.8264C15.8815 40.5561 16.9656 39.8599 17.4212 38.7922C17.7661 37.9838 17.4254 37.7262 17.9041 35.9784C17.9893 35.6667 18.0746 35.4073 18.1694 35.1844C18.2343 35.2013 18.2968 35.2203 18.3627 35.2365C19.4545 35.5046 22.4941 36.204 25.6453 34.7047C26.1268 34.4755 27.0386 34.0316 27.8858 33.217C32.5596 35.0931 35.9379 36.4898 36.7767 36.8546C36.976 36.9414 37.4168 37.1193 37.7905 37.5498C38.0681 37.869 38.2103 38.2812 38.4293 38.6428C39.1726 39.8723 40.9129 40.3829 42.1886 39.7246C42.4508 39.5893 42.6978 39.4055 42.8477 39.151C43.2193 38.5191 42.8614 37.6795 42.3065 37.2007L42.3066 37.2004ZM6.26449 19.686C6.21992 19.4952 6.33854 19.3043 6.52875 19.26C6.76354 19.2056 6.98042 19.0537 7.13835 18.8428C7.29628 18.633 7.38858 18.3698 7.38787 18.1224C7.38787 18.0306 7.37559 17.9406 7.35067 17.8542C7.29627 17.6662 7.40472 17.4693 7.59247 17.4149C7.78022 17.3604 7.97676 17.469 8.03116 17.657C8.07573 17.811 8.09608 17.9677 8.09608 18.1224C8.09538 18.5402 7.94904 18.942 7.70442 19.2688C7.45981 19.595 7.11027 19.8519 6.68911 19.9506C6.49925 19.9953 6.30906 19.8765 6.26449 19.686ZM8.5207 13.3786C8.50526 13.1832 8.6509 13.0124 8.84603 12.9969C9.00606 12.9843 9.16048 12.9048 9.29805 12.7657C9.43456 12.6279 9.54336 12.4325 9.5946 12.2378C9.63812 12.074 9.65637 11.9 9.65637 11.7162C9.65672 11.4357 9.61355 11.1328 9.56617 10.8207C9.53704 10.627 9.67005 10.4464 9.86342 10.4168C10.0568 10.3877 10.2375 10.5209 10.2667 10.7145C10.3137 11.0287 10.3646 11.3651 10.3646 11.7159C10.3646 11.9457 10.3421 12.1826 10.2789 12.4205C10.1951 12.7326 10.0336 13.0275 9.80306 13.2633C9.57354 13.4978 9.264 13.6756 8.90185 13.7044C8.70707 13.7199 8.53615 13.574 8.5207 13.3786ZM12.5555 16.9323C12.3843 17.1674 12.2021 17.3059 12.1123 17.4317C12.0045 17.5733 11.9435 17.7624 11.9442 17.9494C11.9442 18.0548 11.9631 18.1589 12 18.2523C12.0716 18.4348 11.9821 18.6407 11.7999 18.7124C11.6178 18.7841 11.4121 18.6945 11.3405 18.5121C11.2693 18.3304 11.2356 18.1392 11.2356 17.9494C11.236 17.7459 11.2788 17.5445 11.3553 17.3547C10.7931 17.0366 10.2312 16.7186 9.66893 16.4005C9.62226 16.4866 9.57558 16.5724 9.5289 16.6585C9.43555 16.8307 9.22042 16.8943 9.04845 16.8008C8.87649 16.7074 8.81297 16.4919 8.90632 16.3197C9.09022 15.9809 9.27447 15.6417 9.45801 15.3025C9.55136 15.1303 9.76649 15.0667 9.93846 15.1602C10.1104 15.2537 10.1739 15.4691 10.0806 15.6413C10.056 15.6867 10.0315 15.732 10.0069 15.7774C10.5902 16.1074 11.1734 16.4374 11.7568 16.7674C11.849 16.6722 11.9298 16.5942 11.9771 16.5225C12.0231 16.4603 12.0501 16.3738 12.0477 16.3358L12.0421 16.306C11.9354 16.1418 11.9821 15.9218 12.1459 15.8153C12.3098 15.7085 12.5295 15.7552 12.6359 15.9194C12.7222 16.0515 12.7562 16.2016 12.7559 16.3362C12.7538 16.5696 12.6696 16.7678 12.5555 16.9323Z" fill="black"/>
</svg>
