<svg width="132" height="88" viewBox="0 0 132 88" fill="none" xmlns="http://www.w3.org/2000/svg">
<rect x="77" y="66" width="19" height="17" fill="#E9E8DF"/>
<path d="M130.656 60.4511C128.663 54.9712 126.001 49.7368 122.749 44.9031C119.923 40.7004 117.379 37.6253 116.147 36.1881C110.609 29.7296 103.947 23.9131 98.2573 19.4268C94.7765 15.6106 90.9086 13.5217 89.7839 12.9478C89.5178 12.8125 89.2506 12.6924 88.9845 12.5679C88.7626 12.4142 88.5299 12.2519 88.3274 12.1123L88.2929 12.2465C74.3079 6.14623 60.3654 14.1763 59.6262 14.619C58.9766 15.0075 58.3615 15.4188 57.7624 15.8399C57.4974 14.987 57.1591 14.0854 56.7153 13.1567C53.5403 6.50896 47.6202 3.64283 45.6918 2.70989C38.061 -0.984168 27.2273 -1.3707 19.1072 4.51308C12.9717 8.95942 10.6145 15.3692 9.91973 17.3356C8.41791 21.5861 8.21429 25.6134 8.13781 27.3496C7.87386 33.3296 8.7002 34.5635 8.38991 39.945C8.21323 43.0111 7.69933 46.3882 5.34976 48.3527C3.43102 49.9568 0.278633 50.7512 0.0146921 53.2449C-0.12644 54.5708 0.766687 55.8555 1.94206 56.4746C3.11852 57.0926 4.51476 57.1435 5.83029 56.9573C10.771 56.2581 15.0307 52.102 15.8711 47.1611C16.2309 45.0472 16.0176 42.8835 15.8484 40.7461C15.6082 37.7123 14.8691 28.0393 18.5558 20.1198C19.8583 17.3229 22.1831 12.3302 27.599 10.0226C32.9686 7.73563 40.0445 8.65347 44.8666 13.2243C48.5402 16.7061 49.5822 21.0519 49.8321 23.9829C43.9768 32.7154 43.2192 42.7172 42.9898 45.7532C42.8443 47.6819 41.9609 62.3349 51.2207 74.808C45.0756 76.6946 38.5769 77.4306 32.1712 76.9035C31.3621 76.8364 30.539 76.7465 29.7935 76.4229C26.8427 75.1414 25.5801 70.5219 22.3717 70.7255C19.9714 70.8781 18.7593 73.8848 19.1289 76.2727C19.4467 78.3216 20.5176 80.2438 22.0904 81.5871C23.8853 83.1187 26.2092 83.8536 28.4898 84.4403C41.6722 87.8356 55.4793 87.5403 69.0848 87.2122C73.9135 88.2924 78.7226 88.037 83.9609 87.7534C84.5384 87.722 85.0867 87.6917 85.6232 87.6603C92.2629 88.1549 98.9736 87.6852 105.48 86.2576C106.12 86.1168 106.793 85.9491 107.264 85.4912C108.216 84.5626 107.851 82.8514 106.889 81.9324C105.928 81.0124 104.581 80.6574 103.314 80.2569C102.497 79.9972 101.693 79.6963 100.898 79.3726C101.821 76.9536 101.848 74.8917 101.847 74.5919C101.833 70.6412 99.7342 68.0283 96.8544 64.354C96.2834 63.6255 95.7738 62.9869 95.2729 62.4285C96.11 61.4294 96.9481 60.4304 97.7852 59.4315C98.1138 59.0386 98.0642 58.4531 97.6732 58.123C97.2821 57.7929 96.6993 57.8426 96.3707 58.2355C95.5551 59.2075 94.7396 60.1805 93.9251 61.1535C93.5879 60.9002 93.2291 60.6935 92.8488 60.5225C93.2259 58.9845 93.7182 57.4757 94.3323 56.0188C94.5316 55.5458 94.3119 55.0014 93.8411 54.8012C93.3703 54.6009 92.8284 54.8217 92.6291 55.2947C91.9805 56.8338 91.4601 58.426 91.0605 60.0472C88.5697 59.7896 86.0712 60.9012 85.831 61.0116C83.9834 61.8612 83.3876 62.8051 81.9665 62.7076C80.3376 62.594 79.23 61.2183 79.0565 61.0062C76.9396 58.4183 77.5019 53.0803 80.2147 50.9825C82.6312 49.1132 84.8625 51.2779 90.6143 50.5647C91.4287 50.464 93.1191 50.253 95.0334 49.6479C98.5336 50.5528 101.791 51.5063 105.096 52.777C108.737 54.1765 112.433 55.6052 115.539 57.9701C117.291 59.3025 118.871 60.9867 119.584 63.0745C120.418 65.5163 120.017 68.3379 121.287 70.5817C122.934 73.4911 127.433 74.201 129.889 71.9379C131.384 70.5601 132.026 68.4312 131.999 66.393C131.974 64.3484 131.353 62.3678 130.656 60.4529L130.656 60.4511ZM91.2994 69.9694C91.8457 69.1522 92.6461 68.479 93.6448 68.164C94.1318 68.0114 94.6511 68.2831 94.803 68.7734C94.9549 69.2626 94.6834 69.7843 94.1964 69.9369C93.6567 70.1058 93.1794 70.4878 92.8336 71.0052C92.4878 71.5193 92.2895 72.159 92.2906 72.7586C92.2906 73.1612 92.3757 73.5444 92.5492 73.8842C92.7819 74.341 92.603 74.9006 92.1484 75.1344C91.6938 75.3681 91.1367 75.1885 90.9041 74.7317C90.5841 74.105 90.4408 73.4253 90.4419 72.7575C90.444 71.7628 90.7522 70.7896 91.2994 69.9694ZM86.2661 75.6917C86.6345 75.7988 86.8468 76.1841 86.7401 76.5543C86.1853 78.4852 85.5195 80.3847 84.746 82.24C84.5984 82.595 84.1911 82.7617 83.8378 82.6135C83.4844 82.4652 83.3185 82.0561 83.4661 81.7021C84.2191 79.8968 84.8677 78.0479 85.4074 76.1691C85.513 75.7978 85.8976 75.5845 86.2661 75.6917ZM78.5911 79.007C80.0477 77.2666 81.5033 75.5252 82.9598 73.7834C83.2065 73.489 83.6439 73.4511 83.937 73.6979C84.23 73.9458 84.2677 74.3852 84.0221 74.6796C82.5655 76.42 81.1099 78.1614 79.6534 79.9032C79.4067 80.1976 78.9693 80.2354 78.6762 79.9887C78.3821 79.7419 78.3444 79.3024 78.5911 79.007Z" fill="black"/>
</svg>
