<svg width="28" height="28" viewBox="0 0 28 28" fill="none" xmlns="http://www.w3.org/2000/svg">
<path d="M26.9376 0C27.7603 6.11106 27.6232 11.0364 26.3891 14.1831L15.0536 5.79182C17.2933 3.46597 21.864 0.684073 26.9376 0Z" fill="black"/>
<path d="M25.4749 13.7727L20.8127 7.70725C20.8127 7.70725 21.6812 4.3781 26.1148 2.05225C27.4403 7.34241 25.4749 13.7727 25.4749 13.7727Z" fill="#F7A4A4"/>
<path d="M23.6923 12.4045L20.8127 8.66489C20.8127 8.66489 22.0011 6.38465 24.7436 4.92529C23.1438 8.34566 23.6923 12.4045 23.6923 12.4045Z" fill="#F78D8D"/>
<path d="M0.518575 0C-0.304161 6.11106 -0.167038 11.0364 1.06707 14.1831L12.4025 5.74622C10.1629 3.46597 5.59211 0.684073 0.518575 0Z" fill="black"/>
<path d="M1.98128 13.7727L6.68916 7.70725C6.68916 7.70725 5.82072 4.3781 1.38709 2.05225C0.0158587 7.34241 1.98128 13.7727 1.98128 13.7727Z" fill="#F7A4A4"/>
<path d="M3.76374 12.4045L6.68903 8.66489C6.68903 8.66489 5.50063 6.38465 2.75818 4.92529C4.31224 8.34566 3.76374 12.4045 3.76374 12.4045Z" fill="#F78D8D"/>
<path d="M25.7035 22.2552C26.0691 21.8448 26.3434 21.5256 26.4805 21.2519C27.2118 20.0662 27.4403 18.8349 27.4403 18.8349L26.5262 19.0173C26.5262 19.0173 27.5775 17.8772 27.3032 15.4601L26.3891 16.4178C26.3891 16.4178 27.2575 13.9551 26.5262 11.6749L25.5206 12.4046C25.5206 12.4046 25.8406 11.4925 25.5663 10.854L25.155 11.1732C25.155 11.1732 25.932 9.02982 25.2464 8.16332C24.835 9.44026 24.3779 9.44026 24.3779 9.44026C24.3779 9.44026 24.9264 8.48256 24.5151 8.07211C24.058 8.80179 23.6923 8.34574 23.6923 8.11772C23.738 7.84409 23.6009 7.43365 24.9264 7.20562C23.8751 6.56715 22.5953 7.0232 22.5953 7.0232C22.5953 7.0232 22.641 6.33913 23.5552 6.38473C22.6868 5.65506 21.4984 6.1111 21.4984 6.1111C19.6243 4.69735 17.1104 3.87646 13.6824 3.87646C10.3 3.87646 7.78609 4.69735 5.86637 6.1111C5.86637 6.1111 4.67798 5.70066 3.80953 6.38473C4.72369 6.33913 4.76939 7.0232 4.76939 7.0232C4.76939 7.0232 3.53529 6.56715 2.43831 7.20562C3.76383 7.38804 3.67241 7.79849 3.67241 8.11772C3.67241 8.34574 3.30675 8.80179 2.84968 8.07211C2.3926 8.48256 2.9868 9.44026 2.9868 9.44026C2.9868 9.44026 2.52972 9.44026 2.11836 8.16332C1.43274 9.07542 2.20977 11.1732 2.20977 11.1732L1.7984 10.854C1.52416 11.4925 1.84411 12.4046 1.84411 12.4046L0.929959 11.6749C0.152931 13.9551 1.06708 16.4178 1.06708 16.4178L0.198638 15.4601C-0.121314 17.8772 0.929959 19.0173 0.929959 19.0173L0.0158081 18.8349C0.0158081 18.8349 0.244346 20.0662 0.975667 21.2519C1.06708 21.48 1.34133 21.8448 1.7527 22.2552L1.7984 22.3008C3.67241 24.1706 8.28887 27.363 13.7281 27.363C19.1673 27.363 23.7837 24.1706 25.6577 22.3008C25.6577 22.2552 25.7035 22.2552 25.7035 22.2552Z" fill="black"/>
<path d="M16.3334 4.01347C15.5106 3.87666 14.6422 3.83105 13.728 3.83105C12.8139 3.83105 11.9454 3.87666 11.1227 4.01347C11.4427 5.79207 12.4025 7.0234 13.728 9.30364C15.0993 6.97779 16.0134 5.74646 16.3334 4.01347ZM20.4928 5.38162C19.6243 4.87997 18.6187 4.51513 17.5218 4.2415C17.796 5.29041 18.3902 6.02009 19.1672 7.38824C19.7614 6.43053 20.1728 6.1569 20.4928 5.38162ZM9.93431 4.2415C8.79162 4.51513 7.83176 4.87997 6.96332 5.38162C7.28327 6.20251 7.74035 6.43053 8.28884 7.38824C9.11157 5.97448 9.66006 5.24481 9.93431 4.2415Z" fill="black"/>
<path d="M15.5563 15.5059C15.1907 15.0954 14.048 15.0498 13.728 15.0498C13.4081 15.0498 12.2654 15.0954 11.8997 15.5059C11.6255 15.8251 11.854 16.5548 12.5396 17.2389C12.9967 17.6493 13.4081 17.7861 13.728 17.7861C14.048 17.7861 14.505 17.6493 14.9164 17.2389C15.6477 16.6004 15.8306 15.8251 15.5563 15.5059ZM11.4426 14.0921C10.5742 11.7663 9.29438 10.5806 8.01457 10.5806C6.73476 10.5806 5.45495 11.7663 4.58651 14.0921C4.49509 14.3202 4.95217 14.7306 5.18071 14.5026C6.00344 13.6361 7.00901 13.2713 8.01457 13.2713C9.02014 13.2713 10.0257 13.6361 10.8484 14.5026C11.077 14.7762 11.5341 14.3202 11.4426 14.0921ZM22.8238 14.0921C21.9554 11.7663 20.6756 10.5806 19.3958 10.5806C18.1159 10.5806 16.8361 11.7663 15.9677 14.0921C15.8763 14.3202 16.3333 14.7306 16.5619 14.5026C17.3846 13.6361 18.3902 13.2713 19.3958 13.2713C20.4013 13.2713 21.4069 13.6361 22.2296 14.5026C22.5039 14.7762 22.9152 14.3202 22.8238 14.0921ZM21.4983 19.7928C21.4983 19.4279 21.2698 18.9719 20.6756 18.835C19.0758 18.5614 16.7447 18.2422 13.728 18.2422C10.7113 18.2422 8.38023 18.5614 6.78047 18.835C6.18627 18.9719 5.95773 19.4279 5.95773 19.7928C5.95773 24.1708 7.19184 25.539 12.2654 25.539H15.2364C20.2642 25.539 21.4983 24.1708 21.4983 19.7928Z" fill="#4C5359"/>
<path d="M19.7156 20.1576C19.7614 19.9296 19.7156 19.7016 19.5328 19.6559C19.5328 19.6559 16.9275 19.1543 13.728 19.1543C10.5284 19.1543 7.9231 19.6559 7.9231 19.6559C7.74027 19.7016 7.64885 19.9296 7.74027 20.1576L8.15164 21.4801C8.19734 21.7082 8.42588 21.8906 8.60871 21.8906H18.8929C19.0757 21.8906 19.2586 21.7082 19.35 21.4801L19.7156 20.1576ZM13.728 24.6269C15.9676 24.6269 19.2129 24.6269 19.1214 23.6692C19.1214 23.4868 19.0757 23.3043 19.03 23.0763C18.9843 22.8483 18.9386 22.7571 18.5273 22.7571H8.92867C8.56301 22.7571 8.5173 22.8027 8.42588 23.0763C8.38018 23.3043 8.33447 23.4868 8.33447 23.6692C8.24305 24.6269 11.4883 24.6269 13.728 24.6269Z" fill="white"/>
<rect x="8.6604" y="15.8418" width="11.5472" height="2.16023" fill="black"/>
<path d="M15.7427 14.8814C15.3357 14.4494 14.064 14.4014 13.7079 14.4014C13.3518 14.4014 12.08 14.4494 11.6731 14.8814C11.3679 15.2175 11.6222 15.9855 12.3853 16.7056C12.894 17.1377 13.3518 17.2817 13.7079 17.2817C14.064 17.2817 14.5727 17.1377 15.0305 16.7056C15.8444 16.0335 16.0479 15.2175 15.7427 14.8814Z" fill="#F7A4A4"/>
</svg>
