<svg viewBox="0 0 35 35" fill="none" xmlns="http://www.w3.org/2000/svg">
<path d="M17.3989 0C12.7843 0 8.35921 1.82901 5.09601 5.08457C1.83281 8.34012 0 12.7555 0 17.3599C0 21.9638 1.83312 26.3793 5.09601 29.6351C8.3589 32.8907 12.7842 34.7197 17.3989 34.7197C22.0133 34.7197 26.4387 32.8907 29.7019 29.6351C32.9647 26.3796 34.7979 21.9642 34.7979 17.3599C34.7979 14.3126 33.994 11.3188 32.4671 8.67989C30.9399 6.04085 28.7436 3.84948 26.0986 2.32597C23.4536 0.802155 20.4534 0.00015743 17.3991 0.00015743L17.3989 0ZM14.7641 23.9315L9.49486 18.6741L11.2472 16.9257L14.7641 20.4348L23.6128 11.6556L25.3651 13.404L14.7641 23.9315Z" fill="#4E964E" fill-opacity="0.65"/>
</svg>
