<svg width="22" height="18" viewBox="0 0 22 18" fill="none" xmlns="http://www.w3.org/2000/svg">
<path d="M15 6.00003C15.6491 6.86551 16 7.91818 16 9.00003C16 10.0819 15.6491 11.1345 15 12M18.364 15.364C19.1997 14.5283 19.8627 13.5361 20.315 12.4442C20.7673 11.3523 21.0001 10.1819 21.0001 9.00003C21.0001 7.81812 20.7673 6.64779 20.315 5.55585C19.8627 4.46391 19.1997 3.47176 18.364 2.63603M10 1.70203C9.9998 1.56274 9.95834 1.42663 9.88086 1.31088C9.80338 1.19514 9.69335 1.10493 9.56465 1.05166C9.43596 0.998379 9.29436 0.984419 9.15774 1.01154C9.02112 1.03866 8.89559 1.10564 8.797 1.20403L5.413 4.58703C5.2824 4.7184 5.12703 4.82256 4.95589 4.89345C4.78475 4.96435 4.60124 5.00057 4.416 5.00003H2C1.73478 5.00003 1.48043 5.10539 1.29289 5.29292C1.10536 5.48046 1 5.73481 1 6.00003V12C1 12.2652 1.10536 12.5196 1.29289 12.7071C1.48043 12.8947 1.73478 13 2 13H4.416C4.60124 12.9995 4.78475 13.0357 4.95589 13.1066C5.12703 13.1775 5.2824 13.2817 5.413 13.413L8.796 16.797C8.8946 16.8958 9.02031 16.9631 9.15719 16.9904C9.29408 17.0177 9.43598 17.0037 9.56493 16.9503C9.69387 16.8968 9.80405 16.8063 9.8815 16.6902C9.95895 16.5741 10.0002 16.4376 10 16.298V1.70203Z" stroke="#A68F75" stroke-width="2" stroke-linecap="round" stroke-linejoin="round"/>
</svg>
