<svg width="22" height="22" viewBox="0 0 22 22" fill="none" xmlns="http://www.w3.org/2000/svg">
<path d="M15 8C15.5044 8.67234 15.8311 9.46097 15.95 10.293M18.364 4.636C19.643 5.91426 20.5073 7.54815 20.8442 9.32474C21.1812 11.1013 20.9751 12.9382 20.253 14.596M1 1L21 21M6 6L5.413 6.587C5.2824 6.71838 5.12703 6.82253 4.95589 6.89342C4.78475 6.96432 4.60124 7.00054 4.416 7H2C1.73478 7 1.48043 7.10536 1.29289 7.29289C1.10536 7.48043 1 7.73478 1 8V14C1 14.2652 1.10536 14.5196 1.29289 14.7071C1.48043 14.8946 1.73478 15 2 15H4.416C4.60124 14.9995 4.78475 15.0357 4.95589 15.1066C5.12703 15.1775 5.2824 15.2816 5.413 15.413L8.796 18.797C8.8946 18.8958 9.02031 18.9631 9.15719 18.9904C9.29408 19.0177 9.43598 19.0037 9.56493 18.9503C9.69387 18.8968 9.80405 18.8063 9.8815 18.6902C9.95895 18.5741 10.0002 18.4376 10 18.298V10M8.828 3.172C8.92389 3.07575 9.04619 3.01013 9.17941 2.98348C9.31264 2.95683 9.45077 2.97033 9.57631 3.02228C9.70185 3.07423 9.80913 3.16229 9.88456 3.27529C9.95999 3.38829 10.0002 3.52114 10 3.657V4.343" stroke="#A68F75" stroke-width="2" stroke-linecap="round" stroke-linejoin="round"/>
</svg>
