<svg width="27" height="25" viewBox="0 0 27 25" fill="none" xmlns="http://www.w3.org/2000/svg">
<path d="M10.6236 2.11469C11.5034 -0.686929 15.4683 -0.686934 16.348 2.11468L17.2009 4.8305C17.5935 6.08092 18.7524 6.93171 20.0631 6.93171H23.0348C25.9162 6.93171 27.1407 10.5983 24.8375 12.3297L22.2592 14.268C21.2434 15.0316 20.819 16.3523 21.1997 17.5647L22.1426 20.5676C23.0163 23.3497 19.8086 25.6166 17.4778 23.8644L15.2885 22.2186C14.2208 21.4159 12.7509 21.4159 11.6832 22.2186L9.49394 23.8644C7.16312 25.6166 3.95543 23.3497 4.82905 20.5676L5.77201 17.5647C6.15273 16.3523 5.72827 15.0316 4.71251 14.268L2.13416 12.3297C-0.168961 10.5983 1.05553 6.93171 3.93686 6.93171H6.90863C8.21925 6.93171 9.37817 6.08092 9.77083 4.8305L10.6236 2.11469Z" fill="#5EBACC" fill-opacity="0.65"/>
</svg>
